G04 #@! TF.GenerationSoftware,KiCad,Pcbnew,(5.1.5-0-10_14)*
G04 #@! TF.CreationDate,2020-09-24T22:32:45+08:00*
G04 #@! TF.ProjectId,CC,43432e6b-6963-4616-945f-706362585858,rev?*
G04 #@! TF.SameCoordinates,Original*
G04 #@! TF.FileFunction,Legend,Bot*
G04 #@! TF.FilePolarity,Positive*
%FSLAX46Y46*%
G04 Gerber Fmt 4.6, Leading zero omitted, Abs format (unit mm)*
G04 Created by KiCad (PCBNEW (5.1.5-0-10_14)) date 2020-09-24 22:32:45*
%MOMM*%
%LPD*%
G04 APERTURE LIST*
%ADD10C,0.120000*%
%ADD11C,0.150000*%
G04 APERTURE END LIST*
D10*
X94880000Y-50160000D02*
X94880000Y-43340000D01*
X88120000Y-50160000D02*
X88120000Y-43340000D01*
X94880000Y-50160000D02*
X93570000Y-50160000D01*
X91970000Y-50160000D02*
X91030000Y-50160000D01*
X89430000Y-50160000D02*
X88120000Y-50160000D01*
X89430000Y-43340000D02*
X88120000Y-43340000D01*
X94880000Y-43340000D02*
X93570000Y-43340000D01*
X91970000Y-43340000D02*
X91030000Y-43340000D01*
X95120000Y-50400000D02*
X95120000Y-49017000D01*
X95120000Y-50400000D02*
X93737000Y-50400000D01*
X93405000Y-48560000D02*
X92135000Y-48560000D01*
X92135000Y-48560000D02*
X92135000Y-44940000D01*
X92135000Y-44940000D02*
X93405000Y-44940000D01*
X93405000Y-44940000D02*
X93405000Y-48560000D01*
X93285000Y-48560000D02*
X93285000Y-47353333D01*
X93165000Y-48560000D02*
X93165000Y-47353333D01*
X93045000Y-48560000D02*
X93045000Y-47353333D01*
X92925000Y-48560000D02*
X92925000Y-47353333D01*
X92805000Y-48560000D02*
X92805000Y-47353333D01*
X92685000Y-48560000D02*
X92685000Y-47353333D01*
X92565000Y-48560000D02*
X92565000Y-47353333D01*
X92445000Y-48560000D02*
X92445000Y-47353333D01*
X92325000Y-48560000D02*
X92325000Y-47353333D01*
X92205000Y-48560000D02*
X92205000Y-47353333D01*
X93405000Y-47353333D02*
X92135000Y-47353333D01*
X90865000Y-48560000D02*
X89595000Y-48560000D01*
X89595000Y-48560000D02*
X89595000Y-44940000D01*
X89595000Y-44940000D02*
X90865000Y-44940000D01*
X90865000Y-44940000D02*
X90865000Y-48560000D01*
X90745000Y-48560000D02*
X90745000Y-47353333D01*
X90625000Y-48560000D02*
X90625000Y-47353333D01*
X90505000Y-48560000D02*
X90505000Y-47353333D01*
X90385000Y-48560000D02*
X90385000Y-47353333D01*
X90265000Y-48560000D02*
X90265000Y-47353333D01*
X90145000Y-48560000D02*
X90145000Y-47353333D01*
X90025000Y-48560000D02*
X90025000Y-47353333D01*
X89905000Y-48560000D02*
X89905000Y-47353333D01*
X89785000Y-48560000D02*
X89785000Y-47353333D01*
X89665000Y-48560000D02*
X89665000Y-47353333D01*
X90865000Y-47353333D02*
X89595000Y-47353333D01*
D11*
X96284761Y-45416666D02*
X96332380Y-45559523D01*
X96332380Y-45797619D01*
X96284761Y-45892857D01*
X96237142Y-45940476D01*
X96141904Y-45988095D01*
X96046666Y-45988095D01*
X95951428Y-45940476D01*
X95903809Y-45892857D01*
X95856190Y-45797619D01*
X95808571Y-45607142D01*
X95760952Y-45511904D01*
X95713333Y-45464285D01*
X95618095Y-45416666D01*
X95522857Y-45416666D01*
X95427619Y-45464285D01*
X95380000Y-45511904D01*
X95332380Y-45607142D01*
X95332380Y-45845238D01*
X95380000Y-45988095D01*
X95332380Y-46321428D02*
X96332380Y-46559523D01*
X95618095Y-46750000D01*
X96332380Y-46940476D01*
X95332380Y-47178571D01*
X96332380Y-48083333D02*
X96332380Y-47511904D01*
X96332380Y-47797619D02*
X95332380Y-47797619D01*
X95475238Y-47702380D01*
X95570476Y-47607142D01*
X95618095Y-47511904D01*
M02*
