%FSLAX45Y45*%
G04 Gerber Fmt 4.5, Leading zero omitted, Abs format (unit mm)*
G04 Created by KiCad (PCBNEW (5.1.5-0-10_14)) date 2020-09-24 22:33:03*
%MOMM*%
%LPD*%
G04 APERTURE LIST*
%TA.AperFunction,Profile*%
%ADD10C,0.100000*%
%TD*%
%ADD11C,0.200000*%
%ADD12C,0.300000*%
G04 APERTURE END LIST*
D10*
X3000000Y-2000000D02*
X10500000Y-2000000D01*
X3000000Y-5400000D02*
X3000000Y-2000000D01*
X10500000Y-5400000D02*
X3000000Y-5400000D01*
X10500000Y-2000000D02*
X10500000Y-5400000D01*
D11*
D12*
X3281428Y-5870714D02*
X3281428Y-5570714D01*
X3352857Y-5570714D01*
X3395714Y-5585000D01*
X3424286Y-5613571D01*
X3438571Y-5642143D01*
X3452857Y-5699286D01*
X3452857Y-5742143D01*
X3438571Y-5799286D01*
X3424286Y-5827857D01*
X3395714Y-5856429D01*
X3352857Y-5870714D01*
X3281428Y-5870714D01*
X3581428Y-5870714D02*
X3581428Y-5670714D01*
X3581428Y-5727857D02*
X3595714Y-5699286D01*
X3610000Y-5685000D01*
X3638571Y-5670714D01*
X3667143Y-5670714D01*
X3767143Y-5870714D02*
X3767143Y-5670714D01*
X3767143Y-5570714D02*
X3752857Y-5585000D01*
X3767143Y-5599286D01*
X3781428Y-5585000D01*
X3767143Y-5570714D01*
X3767143Y-5599286D01*
X3952857Y-5870714D02*
X3924286Y-5856429D01*
X3910000Y-5827857D01*
X3910000Y-5570714D01*
X4110000Y-5870714D02*
X4081428Y-5856429D01*
X4067143Y-5827857D01*
X4067143Y-5570714D01*
X4452857Y-5870714D02*
X4452857Y-5570714D01*
X4552857Y-5785000D01*
X4652857Y-5570714D01*
X4652857Y-5870714D01*
X4924286Y-5870714D02*
X4924286Y-5713571D01*
X4910000Y-5685000D01*
X4881428Y-5670714D01*
X4824286Y-5670714D01*
X4795714Y-5685000D01*
X4924286Y-5856429D02*
X4895714Y-5870714D01*
X4824286Y-5870714D01*
X4795714Y-5856429D01*
X4781428Y-5827857D01*
X4781428Y-5799286D01*
X4795714Y-5770714D01*
X4824286Y-5756429D01*
X4895714Y-5756429D01*
X4924286Y-5742143D01*
X5067143Y-5670714D02*
X5067143Y-5970714D01*
X5067143Y-5685000D02*
X5095714Y-5670714D01*
X5152857Y-5670714D01*
X5181428Y-5685000D01*
X5195714Y-5699286D01*
X5210000Y-5727857D01*
X5210000Y-5813571D01*
X5195714Y-5842143D01*
X5181428Y-5856429D01*
X5152857Y-5870714D01*
X5095714Y-5870714D01*
X5067143Y-5856429D01*
X5338571Y-5842143D02*
X5352857Y-5856429D01*
X5338571Y-5870714D01*
X5324286Y-5856429D01*
X5338571Y-5842143D01*
X5338571Y-5870714D01*
X5338571Y-5685000D02*
X5352857Y-5699286D01*
X5338571Y-5713571D01*
X5324286Y-5699286D01*
X5338571Y-5685000D01*
X5338571Y-5713571D01*
M02*
