G04 #@! TF.GenerationSoftware,KiCad,Pcbnew,(5.1.5-0-10_14)*
G04 #@! TF.CreationDate,2020-09-24T22:41:23+08:00*
G04 #@! TF.ProjectId,connector,636f6e6e-6563-4746-9f72-2e6b69636164,rev?*
G04 #@! TF.SameCoordinates,Original*
G04 #@! TF.FileFunction,Copper,L2,Bot*
G04 #@! TF.FilePolarity,Positive*
%FSLAX46Y46*%
G04 Gerber Fmt 4.6, Leading zero omitted, Abs format (unit mm)*
G04 Created by KiCad (PCBNEW (5.1.5-0-10_14)) date 2020-09-24 22:41:23*
%MOMM*%
%LPD*%
G04 APERTURE LIST*
%ADD10C,0.100000*%
%ADD11O,2.000000X1.700000*%
%ADD12C,2.000000*%
%ADD13R,1.600000X1.600000*%
%ADD14C,1.600000*%
G04 APERTURE END LIST*
G04 #@! TA.AperFunction,ComponentPad*
D10*
G36*
X166573004Y-90626764D02*
G01*
X166597273Y-90630364D01*
X166621071Y-90636325D01*
X166644171Y-90644590D01*
X166666349Y-90655080D01*
X166687393Y-90667693D01*
X166707098Y-90682307D01*
X166725277Y-90698783D01*
X166741753Y-90716962D01*
X166756367Y-90736667D01*
X166768980Y-90757711D01*
X166779470Y-90779889D01*
X166787735Y-90802989D01*
X166793696Y-90826787D01*
X166797296Y-90851056D01*
X166798500Y-90875560D01*
X166798500Y-92075560D01*
X166797296Y-92100064D01*
X166793696Y-92124333D01*
X166787735Y-92148131D01*
X166779470Y-92171231D01*
X166768980Y-92193409D01*
X166756367Y-92214453D01*
X166741753Y-92234158D01*
X166725277Y-92252337D01*
X166707098Y-92268813D01*
X166687393Y-92283427D01*
X166666349Y-92296040D01*
X166644171Y-92306530D01*
X166621071Y-92314795D01*
X166597273Y-92320756D01*
X166573004Y-92324356D01*
X166548500Y-92325560D01*
X165048500Y-92325560D01*
X165023996Y-92324356D01*
X164999727Y-92320756D01*
X164975929Y-92314795D01*
X164952829Y-92306530D01*
X164930651Y-92296040D01*
X164909607Y-92283427D01*
X164889902Y-92268813D01*
X164871723Y-92252337D01*
X164855247Y-92234158D01*
X164840633Y-92214453D01*
X164828020Y-92193409D01*
X164817530Y-92171231D01*
X164809265Y-92148131D01*
X164803304Y-92124333D01*
X164799704Y-92100064D01*
X164798500Y-92075560D01*
X164798500Y-90875560D01*
X164799704Y-90851056D01*
X164803304Y-90826787D01*
X164809265Y-90802989D01*
X164817530Y-90779889D01*
X164828020Y-90757711D01*
X164840633Y-90736667D01*
X164855247Y-90716962D01*
X164871723Y-90698783D01*
X164889902Y-90682307D01*
X164909607Y-90667693D01*
X164930651Y-90655080D01*
X164952829Y-90644590D01*
X164975929Y-90636325D01*
X164999727Y-90630364D01*
X165023996Y-90626764D01*
X165048500Y-90625560D01*
X166548500Y-90625560D01*
X166573004Y-90626764D01*
G37*
G04 #@! TD.AperFunction*
D11*
X165798500Y-88975560D03*
D12*
X162351860Y-87911940D03*
X162351860Y-92411940D03*
X155851860Y-87911940D03*
X155851860Y-92411940D03*
D13*
X152960000Y-92120000D03*
D14*
X150310000Y-88870000D03*
M02*
