%FSLAX45Y45*%
G04 Gerber Fmt 4.5, Leading zero omitted, Abs format (unit mm)*
G04 Created by KiCad (PCBNEW (5.1.5-0-10_14)) date 2020-09-24 22:40:25*
%MOMM*%
%LPD*%
G04 APERTURE LIST*
%TA.AperFunction,Profile*%
%ADD10C,0.100000*%
%TD*%
%ADD11C,0.200000*%
%ADD12C,0.300000*%
G04 APERTURE END LIST*
D10*
X14915000Y-8600518D02*
X14915000Y-9456422D01*
X17434560Y-8600000D02*
X17436084Y-9450000D01*
X14915000Y-9456422D02*
X17436084Y-9450000D01*
X14915000Y-8600518D02*
X17434560Y-8600000D01*
D11*
D12*
X15196428Y-9927136D02*
X15196428Y-9627136D01*
X15267857Y-9627136D01*
X15310714Y-9641422D01*
X15339286Y-9669994D01*
X15353571Y-9698565D01*
X15367857Y-9755708D01*
X15367857Y-9798565D01*
X15353571Y-9855708D01*
X15339286Y-9884279D01*
X15310714Y-9912851D01*
X15267857Y-9927136D01*
X15196428Y-9927136D01*
X15496428Y-9927136D02*
X15496428Y-9727136D01*
X15496428Y-9784279D02*
X15510714Y-9755708D01*
X15525000Y-9741422D01*
X15553571Y-9727136D01*
X15582143Y-9727136D01*
X15682143Y-9927136D02*
X15682143Y-9727136D01*
X15682143Y-9627136D02*
X15667857Y-9641422D01*
X15682143Y-9655708D01*
X15696428Y-9641422D01*
X15682143Y-9627136D01*
X15682143Y-9655708D01*
X15867857Y-9927136D02*
X15839286Y-9912851D01*
X15825000Y-9884279D01*
X15825000Y-9627136D01*
X16025000Y-9927136D02*
X15996428Y-9912851D01*
X15982143Y-9884279D01*
X15982143Y-9627136D01*
X16367857Y-9927136D02*
X16367857Y-9627136D01*
X16467857Y-9841422D01*
X16567857Y-9627136D01*
X16567857Y-9927136D01*
X16839286Y-9927136D02*
X16839286Y-9769994D01*
X16825000Y-9741422D01*
X16796428Y-9727136D01*
X16739286Y-9727136D01*
X16710714Y-9741422D01*
X16839286Y-9912851D02*
X16810714Y-9927136D01*
X16739286Y-9927136D01*
X16710714Y-9912851D01*
X16696428Y-9884279D01*
X16696428Y-9855708D01*
X16710714Y-9827136D01*
X16739286Y-9812851D01*
X16810714Y-9812851D01*
X16839286Y-9798565D01*
X16982143Y-9727136D02*
X16982143Y-10027136D01*
X16982143Y-9741422D02*
X17010714Y-9727136D01*
X17067857Y-9727136D01*
X17096428Y-9741422D01*
X17110714Y-9755708D01*
X17125000Y-9784279D01*
X17125000Y-9869994D01*
X17110714Y-9898565D01*
X17096428Y-9912851D01*
X17067857Y-9927136D01*
X17010714Y-9927136D01*
X16982143Y-9912851D01*
X17253571Y-9898565D02*
X17267857Y-9912851D01*
X17253571Y-9927136D01*
X17239286Y-9912851D01*
X17253571Y-9898565D01*
X17253571Y-9927136D01*
X17253571Y-9741422D02*
X17267857Y-9755708D01*
X17253571Y-9769994D01*
X17239286Y-9755708D01*
X17253571Y-9741422D01*
X17253571Y-9769994D01*
M02*
