G04 #@! TF.GenerationSoftware,KiCad,Pcbnew,(5.1.5-0-10_14)*
G04 #@! TF.CreationDate,2020-09-24T22:32:45+08:00*
G04 #@! TF.ProjectId,CC,43432e6b-6963-4616-945f-706362585858,rev?*
G04 #@! TF.SameCoordinates,Original*
G04 #@! TF.FileFunction,Legend,Top*
G04 #@! TF.FilePolarity,Positive*
%FSLAX46Y46*%
G04 Gerber Fmt 4.6, Leading zero omitted, Abs format (unit mm)*
G04 Created by KiCad (PCBNEW (5.1.5-0-10_14)) date 2020-09-24 22:32:45*
%MOMM*%
%LPD*%
G04 APERTURE LIST*
%ADD10C,0.120000*%
%ADD11C,0.150000*%
G04 APERTURE END LIST*
D10*
X41030000Y-35620000D02*
X40430000Y-35320000D01*
X41030000Y-35020000D02*
X41030000Y-35620000D01*
X40430000Y-35320000D02*
X41030000Y-35020000D01*
X37330000Y-38070000D02*
X37330000Y-37570000D01*
X31830000Y-38070000D02*
X37330000Y-38070000D01*
X31830000Y-37570000D02*
X31830000Y-38070000D01*
X37330000Y-37570000D02*
X31830000Y-37570000D01*
X37330000Y-35570000D02*
X37330000Y-35070000D01*
X31830000Y-35570000D02*
X37330000Y-35570000D01*
X31830000Y-35070000D02*
X31830000Y-35570000D01*
X37330000Y-35070000D02*
X31830000Y-35070000D01*
X40340000Y-38970000D02*
X38440000Y-38960000D01*
X40320000Y-40370000D02*
X40320000Y-38950000D01*
X31220000Y-40380000D02*
X40320000Y-40370000D01*
X31220000Y-36570000D02*
X31220000Y-40380000D01*
X40280000Y-34170000D02*
X38440000Y-34180000D01*
X40280000Y-32710000D02*
X40280000Y-34130000D01*
X31220000Y-32760000D02*
X40340000Y-32750000D01*
X31220000Y-36570000D02*
X31220000Y-32760000D01*
X30560000Y-28480000D02*
X30560000Y-23280000D01*
X81480000Y-28480000D02*
X81480000Y-23280000D01*
X31130000Y-29920000D02*
X31130000Y-28480000D01*
X30560000Y-28480000D02*
X31130000Y-28480000D01*
X30560000Y-23280000D02*
X31130000Y-23280000D01*
X80910000Y-28480000D02*
X81480000Y-28480000D01*
X80910000Y-23280000D02*
X81480000Y-23280000D01*
X32650000Y-28480000D02*
X33670000Y-28480000D01*
X32650000Y-23280000D02*
X33670000Y-23280000D01*
X35190000Y-28480000D02*
X36210000Y-28480000D01*
X35190000Y-23280000D02*
X36210000Y-23280000D01*
X37730000Y-28480000D02*
X38750000Y-28480000D01*
X37730000Y-23280000D02*
X38750000Y-23280000D01*
X40270000Y-28480000D02*
X41290000Y-28480000D01*
X40270000Y-23280000D02*
X41290000Y-23280000D01*
X42810000Y-28480000D02*
X43830000Y-28480000D01*
X42810000Y-23280000D02*
X43830000Y-23280000D01*
X45350000Y-28480000D02*
X46370000Y-28480000D01*
X45350000Y-23280000D02*
X46370000Y-23280000D01*
X47890000Y-28480000D02*
X48910000Y-28480000D01*
X47890000Y-23280000D02*
X48910000Y-23280000D01*
X50430000Y-28480000D02*
X51450000Y-28480000D01*
X50430000Y-23280000D02*
X51450000Y-23280000D01*
X52970000Y-28480000D02*
X53990000Y-28480000D01*
X52970000Y-23280000D02*
X53990000Y-23280000D01*
X55510000Y-28480000D02*
X56530000Y-28480000D01*
X55510000Y-23280000D02*
X56530000Y-23280000D01*
X58050000Y-28480000D02*
X59070000Y-28480000D01*
X58050000Y-23280000D02*
X59070000Y-23280000D01*
X60590000Y-28480000D02*
X61610000Y-28480000D01*
X60590000Y-23280000D02*
X61610000Y-23280000D01*
X63130000Y-28480000D02*
X64150000Y-28480000D01*
X63130000Y-23280000D02*
X64150000Y-23280000D01*
X65670000Y-28480000D02*
X66690000Y-28480000D01*
X65670000Y-23280000D02*
X66690000Y-23280000D01*
X68210000Y-28480000D02*
X69230000Y-28480000D01*
X68210000Y-23280000D02*
X69230000Y-23280000D01*
X70750000Y-28480000D02*
X71770000Y-28480000D01*
X70750000Y-23280000D02*
X71770000Y-23280000D01*
X73290000Y-28480000D02*
X74310000Y-28480000D01*
X73290000Y-23280000D02*
X74310000Y-23280000D01*
X75830000Y-28480000D02*
X76850000Y-28480000D01*
X75830000Y-23280000D02*
X76850000Y-23280000D01*
X78370000Y-28480000D02*
X79390000Y-28480000D01*
X78370000Y-23280000D02*
X79390000Y-23280000D01*
X56270000Y-36510000D02*
X57070000Y-35710000D01*
X57070000Y-35710000D02*
X62170000Y-35710000D01*
X62170000Y-35710000D02*
X62170000Y-38910000D01*
X62170000Y-38910000D02*
X56270000Y-38910000D01*
X56270000Y-38910000D02*
X56270000Y-36510000D01*
X38710000Y-43890000D02*
X43810000Y-43890000D01*
X38710000Y-48990000D02*
X43810000Y-48990000D01*
X53053733Y-41050000D02*
X53396267Y-41050000D01*
X53053733Y-42070000D02*
X53396267Y-42070000D01*
X53396267Y-39450000D02*
X53053733Y-39450000D01*
X53396267Y-38430000D02*
X53053733Y-38430000D01*
X41363733Y-51530000D02*
X41706267Y-51530000D01*
X41363733Y-52550000D02*
X41706267Y-52550000D01*
X45438733Y-51530000D02*
X45781267Y-51530000D01*
X45438733Y-52550000D02*
X45781267Y-52550000D01*
X53053733Y-35810000D02*
X53396267Y-35810000D01*
X53053733Y-36830000D02*
X53396267Y-36830000D01*
X75690000Y-50751267D02*
X75690000Y-50408733D01*
X76710000Y-50751267D02*
X76710000Y-50408733D01*
X82925000Y-45730000D02*
X83650000Y-45730000D01*
X83650000Y-45730000D02*
X83650000Y-46455000D01*
X79155000Y-50950000D02*
X78430000Y-50950000D01*
X78430000Y-50950000D02*
X78430000Y-50225000D01*
X82925000Y-50950000D02*
X83650000Y-50950000D01*
X83650000Y-50950000D02*
X83650000Y-50225000D01*
X79155000Y-45730000D02*
X78430000Y-45730000D01*
X69495000Y-41960000D02*
X68695000Y-41160000D01*
X68695000Y-41160000D02*
X68695000Y-32660000D01*
X68695000Y-32660000D02*
X79185000Y-32660000D01*
X79185000Y-32660000D02*
X79185000Y-41960000D01*
X79185000Y-41960000D02*
X69495000Y-41960000D01*
X71463733Y-51370000D02*
X71806267Y-51370000D01*
X71463733Y-52390000D02*
X71806267Y-52390000D01*
X71886267Y-49730000D02*
X71543733Y-49730000D01*
X71886267Y-48710000D02*
X71543733Y-48710000D01*
X47060436Y-35810000D02*
X48264564Y-35810000D01*
X47060436Y-38530000D02*
X48264564Y-38530000D01*
X67120000Y-34501267D02*
X67120000Y-34158733D01*
X68140000Y-34501267D02*
X68140000Y-34158733D01*
X67120000Y-40196267D02*
X67120000Y-39853733D01*
X68140000Y-40196267D02*
X68140000Y-39853733D01*
X49328733Y-51530000D02*
X49671267Y-51530000D01*
X49328733Y-52550000D02*
X49671267Y-52550000D01*
X53053733Y-43670000D02*
X53396267Y-43670000D01*
X53053733Y-44690000D02*
X53396267Y-44690000D01*
X41363733Y-42180000D02*
X41706267Y-42180000D01*
X41363733Y-43200000D02*
X41706267Y-43200000D01*
X43206267Y-35870000D02*
X42863733Y-35870000D01*
X43206267Y-34850000D02*
X42863733Y-34850000D01*
X53053733Y-48910000D02*
X53396267Y-48910000D01*
X53053733Y-49930000D02*
X53396267Y-49930000D01*
X64421267Y-38650000D02*
X64078733Y-38650000D01*
X64421267Y-37630000D02*
X64078733Y-37630000D01*
X53053733Y-51530000D02*
X53396267Y-51530000D01*
X53053733Y-52550000D02*
X53396267Y-52550000D01*
X41363733Y-49850000D02*
X41706267Y-49850000D01*
X41363733Y-50870000D02*
X41706267Y-50870000D01*
X42928733Y-38680000D02*
X43271267Y-38680000D01*
X42928733Y-39700000D02*
X43271267Y-39700000D01*
X64103733Y-35920000D02*
X64446267Y-35920000D01*
X64103733Y-36940000D02*
X64446267Y-36940000D01*
X82460000Y-27413733D02*
X82460000Y-27756267D01*
X83480000Y-27413733D02*
X83480000Y-27756267D01*
X53053733Y-46290000D02*
X53396267Y-46290000D01*
X53053733Y-47310000D02*
X53396267Y-47310000D01*
X75850000Y-46851267D02*
X75850000Y-46508733D01*
X76870000Y-46851267D02*
X76870000Y-46508733D01*
X67523733Y-51370000D02*
X67866267Y-51370000D01*
X67523733Y-52390000D02*
X67866267Y-52390000D01*
X62091267Y-52390000D02*
X61748733Y-52390000D01*
X62091267Y-51370000D02*
X61748733Y-51370000D01*
X96806267Y-50350000D02*
X96463733Y-50350000D01*
X96806267Y-49330000D02*
X96463733Y-49330000D01*
X66540000Y-49430000D02*
X66540000Y-48170000D01*
X66540000Y-42610000D02*
X66540000Y-43870000D01*
X62780000Y-49430000D02*
X66540000Y-49430000D01*
X60530000Y-42610000D02*
X66540000Y-42610000D01*
X43206267Y-37993300D02*
X42863733Y-37993300D01*
X43206267Y-36973300D02*
X42863733Y-36973300D01*
X92120000Y-46090000D02*
X90220000Y-46090000D01*
X90720000Y-48410000D02*
X92120000Y-48410000D01*
X86420000Y-49041267D02*
X86420000Y-48698733D01*
X87440000Y-49041267D02*
X87440000Y-48698733D01*
X87440000Y-45293733D02*
X87440000Y-45636267D01*
X86420000Y-45293733D02*
X86420000Y-45636267D01*
X82490000Y-22578733D02*
X82490000Y-22921267D01*
X83510000Y-22578733D02*
X83510000Y-22921267D01*
X96806267Y-47985000D02*
X96463733Y-47985000D01*
X96806267Y-46965000D02*
X96463733Y-46965000D01*
X85500000Y-38450000D02*
X85500000Y-39230000D01*
X85500000Y-39230000D02*
X86500000Y-39230000D01*
X103740000Y-38450000D02*
X103740000Y-39230000D01*
X103740000Y-39230000D02*
X102740000Y-39230000D01*
X85500000Y-13485000D02*
X103740000Y-13485000D01*
X103740000Y-13485000D02*
X103740000Y-19905000D01*
X85500000Y-13485000D02*
X85500000Y-19905000D01*
X85500000Y-19905000D02*
X85120000Y-19905000D01*
X44210000Y-41090000D02*
X45010000Y-40290000D01*
X45010000Y-40290000D02*
X51010000Y-40290000D01*
X51010000Y-40290000D02*
X51010000Y-50570000D01*
X51010000Y-50570000D02*
X44210000Y-50570000D01*
X44210000Y-50570000D02*
X44210000Y-41090000D01*
X96806267Y-45620000D02*
X96463733Y-45620000D01*
X96806267Y-44600000D02*
X96463733Y-44600000D01*
D11*
X40142380Y-36933333D02*
X40856666Y-36933333D01*
X40999523Y-36980952D01*
X41094761Y-37076190D01*
X41142380Y-37219047D01*
X41142380Y-37314285D01*
X41142380Y-35933333D02*
X41142380Y-36504761D01*
X41142380Y-36219047D02*
X40142380Y-36219047D01*
X40285238Y-36314285D01*
X40380476Y-36409523D01*
X40428095Y-36504761D01*
X29012380Y-26213333D02*
X29726666Y-26213333D01*
X29869523Y-26260952D01*
X29964761Y-26356190D01*
X30012380Y-26499047D01*
X30012380Y-26594285D01*
X29107619Y-25784761D02*
X29060000Y-25737142D01*
X29012380Y-25641904D01*
X29012380Y-25403809D01*
X29060000Y-25308571D01*
X29107619Y-25260952D01*
X29202857Y-25213333D01*
X29298095Y-25213333D01*
X29440952Y-25260952D01*
X30012380Y-25832380D01*
X30012380Y-25213333D01*
X58458095Y-34162380D02*
X58458095Y-34971904D01*
X58505714Y-35067142D01*
X58553333Y-35114761D01*
X58648571Y-35162380D01*
X58839047Y-35162380D01*
X58934285Y-35114761D01*
X58981904Y-35067142D01*
X59029523Y-34971904D01*
X59029523Y-34162380D01*
X59981904Y-34162380D02*
X59505714Y-34162380D01*
X59458095Y-34638571D01*
X59505714Y-34590952D01*
X59600952Y-34543333D01*
X59839047Y-34543333D01*
X59934285Y-34590952D01*
X59981904Y-34638571D01*
X60029523Y-34733809D01*
X60029523Y-34971904D01*
X59981904Y-35067142D01*
X59934285Y-35114761D01*
X59839047Y-35162380D01*
X59600952Y-35162380D01*
X59505714Y-35114761D01*
X59458095Y-35067142D01*
X41093333Y-43442380D02*
X40617142Y-43442380D01*
X40617142Y-42442380D01*
X41950476Y-43442380D02*
X41379047Y-43442380D01*
X41664761Y-43442380D02*
X41664761Y-42442380D01*
X41569523Y-42585238D01*
X41474285Y-42680476D01*
X41379047Y-42728095D01*
X53058333Y-40582380D02*
X52725000Y-40106190D01*
X52486904Y-40582380D02*
X52486904Y-39582380D01*
X52867857Y-39582380D01*
X52963095Y-39630000D01*
X53010714Y-39677619D01*
X53058333Y-39772857D01*
X53058333Y-39915714D01*
X53010714Y-40010952D01*
X52963095Y-40058571D01*
X52867857Y-40106190D01*
X52486904Y-40106190D01*
X53963095Y-39582380D02*
X53486904Y-39582380D01*
X53439285Y-40058571D01*
X53486904Y-40010952D01*
X53582142Y-39963333D01*
X53820238Y-39963333D01*
X53915476Y-40010952D01*
X53963095Y-40058571D01*
X54010714Y-40153809D01*
X54010714Y-40391904D01*
X53963095Y-40487142D01*
X53915476Y-40534761D01*
X53820238Y-40582380D01*
X53582142Y-40582380D01*
X53486904Y-40534761D01*
X53439285Y-40487142D01*
X53058333Y-40822380D02*
X52725000Y-40346190D01*
X52486904Y-40822380D02*
X52486904Y-39822380D01*
X52867857Y-39822380D01*
X52963095Y-39870000D01*
X53010714Y-39917619D01*
X53058333Y-40012857D01*
X53058333Y-40155714D01*
X53010714Y-40250952D01*
X52963095Y-40298571D01*
X52867857Y-40346190D01*
X52486904Y-40346190D01*
X53915476Y-40155714D02*
X53915476Y-40822380D01*
X53677380Y-39774761D02*
X53439285Y-40489047D01*
X54058333Y-40489047D01*
X40892142Y-50967142D02*
X40844523Y-51014761D01*
X40701666Y-51062380D01*
X40606428Y-51062380D01*
X40463571Y-51014761D01*
X40368333Y-50919523D01*
X40320714Y-50824285D01*
X40273095Y-50633809D01*
X40273095Y-50490952D01*
X40320714Y-50300476D01*
X40368333Y-50205238D01*
X40463571Y-50110000D01*
X40606428Y-50062380D01*
X40701666Y-50062380D01*
X40844523Y-50110000D01*
X40892142Y-50157619D01*
X41844523Y-51062380D02*
X41273095Y-51062380D01*
X41558809Y-51062380D02*
X41558809Y-50062380D01*
X41463571Y-50205238D01*
X41368333Y-50300476D01*
X41273095Y-50348095D01*
X42463571Y-50062380D02*
X42558809Y-50062380D01*
X42654047Y-50110000D01*
X42701666Y-50157619D01*
X42749285Y-50252857D01*
X42796904Y-50443333D01*
X42796904Y-50681428D01*
X42749285Y-50871904D01*
X42701666Y-50967142D01*
X42654047Y-51014761D01*
X42558809Y-51062380D01*
X42463571Y-51062380D01*
X42368333Y-51014761D01*
X42320714Y-50967142D01*
X42273095Y-50871904D01*
X42225476Y-50681428D01*
X42225476Y-50443333D01*
X42273095Y-50252857D01*
X42320714Y-50157619D01*
X42368333Y-50110000D01*
X42463571Y-50062380D01*
X45443333Y-50967142D02*
X45395714Y-51014761D01*
X45252857Y-51062380D01*
X45157619Y-51062380D01*
X45014761Y-51014761D01*
X44919523Y-50919523D01*
X44871904Y-50824285D01*
X44824285Y-50633809D01*
X44824285Y-50490952D01*
X44871904Y-50300476D01*
X44919523Y-50205238D01*
X45014761Y-50110000D01*
X45157619Y-50062380D01*
X45252857Y-50062380D01*
X45395714Y-50110000D01*
X45443333Y-50157619D01*
X45776666Y-50062380D02*
X46443333Y-50062380D01*
X46014761Y-51062380D01*
X53058333Y-35247142D02*
X53010714Y-35294761D01*
X52867857Y-35342380D01*
X52772619Y-35342380D01*
X52629761Y-35294761D01*
X52534523Y-35199523D01*
X52486904Y-35104285D01*
X52439285Y-34913809D01*
X52439285Y-34770952D01*
X52486904Y-34580476D01*
X52534523Y-34485238D01*
X52629761Y-34390000D01*
X52772619Y-34342380D01*
X52867857Y-34342380D01*
X53010714Y-34390000D01*
X53058333Y-34437619D01*
X53963095Y-34342380D02*
X53486904Y-34342380D01*
X53439285Y-34818571D01*
X53486904Y-34770952D01*
X53582142Y-34723333D01*
X53820238Y-34723333D01*
X53915476Y-34770952D01*
X53963095Y-34818571D01*
X54010714Y-34913809D01*
X54010714Y-35151904D01*
X53963095Y-35247142D01*
X53915476Y-35294761D01*
X53820238Y-35342380D01*
X53582142Y-35342380D01*
X53486904Y-35294761D01*
X53439285Y-35247142D01*
X75127142Y-50746666D02*
X75174761Y-50794285D01*
X75222380Y-50937142D01*
X75222380Y-51032380D01*
X75174761Y-51175238D01*
X75079523Y-51270476D01*
X74984285Y-51318095D01*
X74793809Y-51365714D01*
X74650952Y-51365714D01*
X74460476Y-51318095D01*
X74365238Y-51270476D01*
X74270000Y-51175238D01*
X74222380Y-51032380D01*
X74222380Y-50937142D01*
X74270000Y-50794285D01*
X74317619Y-50746666D01*
X74650952Y-50175238D02*
X74603333Y-50270476D01*
X74555714Y-50318095D01*
X74460476Y-50365714D01*
X74412857Y-50365714D01*
X74317619Y-50318095D01*
X74270000Y-50270476D01*
X74222380Y-50175238D01*
X74222380Y-49984761D01*
X74270000Y-49889523D01*
X74317619Y-49841904D01*
X74412857Y-49794285D01*
X74460476Y-49794285D01*
X74555714Y-49841904D01*
X74603333Y-49889523D01*
X74650952Y-49984761D01*
X74650952Y-50175238D01*
X74698571Y-50270476D01*
X74746190Y-50318095D01*
X74841428Y-50365714D01*
X75031904Y-50365714D01*
X75127142Y-50318095D01*
X75174761Y-50270476D01*
X75222380Y-50175238D01*
X75222380Y-49984761D01*
X75174761Y-49889523D01*
X75127142Y-49841904D01*
X75031904Y-49794285D01*
X74841428Y-49794285D01*
X74746190Y-49841904D01*
X74698571Y-49889523D01*
X74650952Y-49984761D01*
X80278095Y-43992380D02*
X80278095Y-44801904D01*
X80325714Y-44897142D01*
X80373333Y-44944761D01*
X80468571Y-44992380D01*
X80659047Y-44992380D01*
X80754285Y-44944761D01*
X80801904Y-44897142D01*
X80849523Y-44801904D01*
X80849523Y-43992380D01*
X81278095Y-44087619D02*
X81325714Y-44040000D01*
X81420952Y-43992380D01*
X81659047Y-43992380D01*
X81754285Y-44040000D01*
X81801904Y-44087619D01*
X81849523Y-44182857D01*
X81849523Y-44278095D01*
X81801904Y-44420952D01*
X81230476Y-44992380D01*
X81849523Y-44992380D01*
X67147380Y-38071904D02*
X67956904Y-38071904D01*
X68052142Y-38024285D01*
X68099761Y-37976666D01*
X68147380Y-37881428D01*
X68147380Y-37690952D01*
X68099761Y-37595714D01*
X68052142Y-37548095D01*
X67956904Y-37500476D01*
X67147380Y-37500476D01*
X68147380Y-36500476D02*
X68147380Y-37071904D01*
X68147380Y-36786190D02*
X67147380Y-36786190D01*
X67290238Y-36881428D01*
X67385476Y-36976666D01*
X67433095Y-37071904D01*
X71468333Y-50902380D02*
X71135000Y-50426190D01*
X70896904Y-50902380D02*
X70896904Y-49902380D01*
X71277857Y-49902380D01*
X71373095Y-49950000D01*
X71420714Y-49997619D01*
X71468333Y-50092857D01*
X71468333Y-50235714D01*
X71420714Y-50330952D01*
X71373095Y-50378571D01*
X71277857Y-50426190D01*
X70896904Y-50426190D01*
X71849285Y-49997619D02*
X71896904Y-49950000D01*
X71992142Y-49902380D01*
X72230238Y-49902380D01*
X72325476Y-49950000D01*
X72373095Y-49997619D01*
X72420714Y-50092857D01*
X72420714Y-50188095D01*
X72373095Y-50330952D01*
X71801666Y-50902380D01*
X72420714Y-50902380D01*
X71548333Y-51102380D02*
X71215000Y-50626190D01*
X70976904Y-51102380D02*
X70976904Y-50102380D01*
X71357857Y-50102380D01*
X71453095Y-50150000D01*
X71500714Y-50197619D01*
X71548333Y-50292857D01*
X71548333Y-50435714D01*
X71500714Y-50530952D01*
X71453095Y-50578571D01*
X71357857Y-50626190D01*
X70976904Y-50626190D01*
X72500714Y-51102380D02*
X71929285Y-51102380D01*
X72215000Y-51102380D02*
X72215000Y-50102380D01*
X72119761Y-50245238D01*
X72024523Y-50340476D01*
X71929285Y-50388095D01*
X47495833Y-35342380D02*
X47162500Y-34866190D01*
X46924404Y-35342380D02*
X46924404Y-34342380D01*
X47305357Y-34342380D01*
X47400595Y-34390000D01*
X47448214Y-34437619D01*
X47495833Y-34532857D01*
X47495833Y-34675714D01*
X47448214Y-34770952D01*
X47400595Y-34818571D01*
X47305357Y-34866190D01*
X46924404Y-34866190D01*
X47829166Y-34342380D02*
X48448214Y-34342380D01*
X48114880Y-34723333D01*
X48257738Y-34723333D01*
X48352976Y-34770952D01*
X48400595Y-34818571D01*
X48448214Y-34913809D01*
X48448214Y-35151904D01*
X48400595Y-35247142D01*
X48352976Y-35294761D01*
X48257738Y-35342380D01*
X47972023Y-35342380D01*
X47876785Y-35294761D01*
X47829166Y-35247142D01*
X66557142Y-34496666D02*
X66604761Y-34544285D01*
X66652380Y-34687142D01*
X66652380Y-34782380D01*
X66604761Y-34925238D01*
X66509523Y-35020476D01*
X66414285Y-35068095D01*
X66223809Y-35115714D01*
X66080952Y-35115714D01*
X65890476Y-35068095D01*
X65795238Y-35020476D01*
X65700000Y-34925238D01*
X65652380Y-34782380D01*
X65652380Y-34687142D01*
X65700000Y-34544285D01*
X65747619Y-34496666D01*
X66652380Y-34020476D02*
X66652380Y-33830000D01*
X66604761Y-33734761D01*
X66557142Y-33687142D01*
X66414285Y-33591904D01*
X66223809Y-33544285D01*
X65842857Y-33544285D01*
X65747619Y-33591904D01*
X65700000Y-33639523D01*
X65652380Y-33734761D01*
X65652380Y-33925238D01*
X65700000Y-34020476D01*
X65747619Y-34068095D01*
X65842857Y-34115714D01*
X66080952Y-34115714D01*
X66176190Y-34068095D01*
X66223809Y-34020476D01*
X66271428Y-33925238D01*
X66271428Y-33734761D01*
X66223809Y-33639523D01*
X66176190Y-33591904D01*
X66080952Y-33544285D01*
X66557142Y-40191666D02*
X66604761Y-40239285D01*
X66652380Y-40382142D01*
X66652380Y-40477380D01*
X66604761Y-40620238D01*
X66509523Y-40715476D01*
X66414285Y-40763095D01*
X66223809Y-40810714D01*
X66080952Y-40810714D01*
X65890476Y-40763095D01*
X65795238Y-40715476D01*
X65700000Y-40620238D01*
X65652380Y-40477380D01*
X65652380Y-40382142D01*
X65700000Y-40239285D01*
X65747619Y-40191666D01*
X66652380Y-39239285D02*
X66652380Y-39810714D01*
X66652380Y-39525000D02*
X65652380Y-39525000D01*
X65795238Y-39620238D01*
X65890476Y-39715476D01*
X65938095Y-39810714D01*
X48857142Y-50967142D02*
X48809523Y-51014761D01*
X48666666Y-51062380D01*
X48571428Y-51062380D01*
X48428571Y-51014761D01*
X48333333Y-50919523D01*
X48285714Y-50824285D01*
X48238095Y-50633809D01*
X48238095Y-50490952D01*
X48285714Y-50300476D01*
X48333333Y-50205238D01*
X48428571Y-50110000D01*
X48571428Y-50062380D01*
X48666666Y-50062380D01*
X48809523Y-50110000D01*
X48857142Y-50157619D01*
X49238095Y-50157619D02*
X49285714Y-50110000D01*
X49380952Y-50062380D01*
X49619047Y-50062380D01*
X49714285Y-50110000D01*
X49761904Y-50157619D01*
X49809523Y-50252857D01*
X49809523Y-50348095D01*
X49761904Y-50490952D01*
X49190476Y-51062380D01*
X49809523Y-51062380D01*
X50761904Y-51062380D02*
X50190476Y-51062380D01*
X50476190Y-51062380D02*
X50476190Y-50062380D01*
X50380952Y-50205238D01*
X50285714Y-50300476D01*
X50190476Y-50348095D01*
X52582142Y-43107142D02*
X52534523Y-43154761D01*
X52391666Y-43202380D01*
X52296428Y-43202380D01*
X52153571Y-43154761D01*
X52058333Y-43059523D01*
X52010714Y-42964285D01*
X51963095Y-42773809D01*
X51963095Y-42630952D01*
X52010714Y-42440476D01*
X52058333Y-42345238D01*
X52153571Y-42250000D01*
X52296428Y-42202380D01*
X52391666Y-42202380D01*
X52534523Y-42250000D01*
X52582142Y-42297619D01*
X53534523Y-43202380D02*
X52963095Y-43202380D01*
X53248809Y-43202380D02*
X53248809Y-42202380D01*
X53153571Y-42345238D01*
X53058333Y-42440476D01*
X52963095Y-42488095D01*
X54010714Y-43202380D02*
X54201190Y-43202380D01*
X54296428Y-43154761D01*
X54344047Y-43107142D01*
X54439285Y-42964285D01*
X54486904Y-42773809D01*
X54486904Y-42392857D01*
X54439285Y-42297619D01*
X54391666Y-42250000D01*
X54296428Y-42202380D01*
X54105952Y-42202380D01*
X54010714Y-42250000D01*
X53963095Y-42297619D01*
X53915476Y-42392857D01*
X53915476Y-42630952D01*
X53963095Y-42726190D01*
X54010714Y-42773809D01*
X54105952Y-42821428D01*
X54296428Y-42821428D01*
X54391666Y-42773809D01*
X54439285Y-42726190D01*
X54486904Y-42630952D01*
X41368333Y-41617142D02*
X41320714Y-41664761D01*
X41177857Y-41712380D01*
X41082619Y-41712380D01*
X40939761Y-41664761D01*
X40844523Y-41569523D01*
X40796904Y-41474285D01*
X40749285Y-41283809D01*
X40749285Y-41140952D01*
X40796904Y-40950476D01*
X40844523Y-40855238D01*
X40939761Y-40760000D01*
X41082619Y-40712380D01*
X41177857Y-40712380D01*
X41320714Y-40760000D01*
X41368333Y-40807619D01*
X42225476Y-41045714D02*
X42225476Y-41712380D01*
X41987380Y-40664761D02*
X41749285Y-41379047D01*
X42368333Y-41379047D01*
X42868333Y-37147142D02*
X42820714Y-37194761D01*
X42677857Y-37242380D01*
X42582619Y-37242380D01*
X42439761Y-37194761D01*
X42344523Y-37099523D01*
X42296904Y-37004285D01*
X42249285Y-36813809D01*
X42249285Y-36670952D01*
X42296904Y-36480476D01*
X42344523Y-36385238D01*
X42439761Y-36290000D01*
X42582619Y-36242380D01*
X42677857Y-36242380D01*
X42820714Y-36290000D01*
X42868333Y-36337619D01*
X43249285Y-36337619D02*
X43296904Y-36290000D01*
X43392142Y-36242380D01*
X43630238Y-36242380D01*
X43725476Y-36290000D01*
X43773095Y-36337619D01*
X43820714Y-36432857D01*
X43820714Y-36528095D01*
X43773095Y-36670952D01*
X43201666Y-37242380D01*
X43820714Y-37242380D01*
X52582142Y-48347142D02*
X52534523Y-48394761D01*
X52391666Y-48442380D01*
X52296428Y-48442380D01*
X52153571Y-48394761D01*
X52058333Y-48299523D01*
X52010714Y-48204285D01*
X51963095Y-48013809D01*
X51963095Y-47870952D01*
X52010714Y-47680476D01*
X52058333Y-47585238D01*
X52153571Y-47490000D01*
X52296428Y-47442380D01*
X52391666Y-47442380D01*
X52534523Y-47490000D01*
X52582142Y-47537619D01*
X53534523Y-48442380D02*
X52963095Y-48442380D01*
X53248809Y-48442380D02*
X53248809Y-47442380D01*
X53153571Y-47585238D01*
X53058333Y-47680476D01*
X52963095Y-47728095D01*
X53867857Y-47442380D02*
X54486904Y-47442380D01*
X54153571Y-47823333D01*
X54296428Y-47823333D01*
X54391666Y-47870952D01*
X54439285Y-47918571D01*
X54486904Y-48013809D01*
X54486904Y-48251904D01*
X54439285Y-48347142D01*
X54391666Y-48394761D01*
X54296428Y-48442380D01*
X54010714Y-48442380D01*
X53915476Y-48394761D01*
X53867857Y-48347142D01*
X63607142Y-39927142D02*
X63559523Y-39974761D01*
X63416666Y-40022380D01*
X63321428Y-40022380D01*
X63178571Y-39974761D01*
X63083333Y-39879523D01*
X63035714Y-39784285D01*
X62988095Y-39593809D01*
X62988095Y-39450952D01*
X63035714Y-39260476D01*
X63083333Y-39165238D01*
X63178571Y-39070000D01*
X63321428Y-39022380D01*
X63416666Y-39022380D01*
X63559523Y-39070000D01*
X63607142Y-39117619D01*
X63988095Y-39117619D02*
X64035714Y-39070000D01*
X64130952Y-39022380D01*
X64369047Y-39022380D01*
X64464285Y-39070000D01*
X64511904Y-39117619D01*
X64559523Y-39212857D01*
X64559523Y-39308095D01*
X64511904Y-39450952D01*
X63940476Y-40022380D01*
X64559523Y-40022380D01*
X65464285Y-39022380D02*
X64988095Y-39022380D01*
X64940476Y-39498571D01*
X64988095Y-39450952D01*
X65083333Y-39403333D01*
X65321428Y-39403333D01*
X65416666Y-39450952D01*
X65464285Y-39498571D01*
X65511904Y-39593809D01*
X65511904Y-39831904D01*
X65464285Y-39927142D01*
X65416666Y-39974761D01*
X65321428Y-40022380D01*
X65083333Y-40022380D01*
X64988095Y-39974761D01*
X64940476Y-39927142D01*
X52582142Y-50967142D02*
X52534523Y-51014761D01*
X52391666Y-51062380D01*
X52296428Y-51062380D01*
X52153571Y-51014761D01*
X52058333Y-50919523D01*
X52010714Y-50824285D01*
X51963095Y-50633809D01*
X51963095Y-50490952D01*
X52010714Y-50300476D01*
X52058333Y-50205238D01*
X52153571Y-50110000D01*
X52296428Y-50062380D01*
X52391666Y-50062380D01*
X52534523Y-50110000D01*
X52582142Y-50157619D01*
X53534523Y-51062380D02*
X52963095Y-51062380D01*
X53248809Y-51062380D02*
X53248809Y-50062380D01*
X53153571Y-50205238D01*
X53058333Y-50300476D01*
X52963095Y-50348095D01*
X54105952Y-50490952D02*
X54010714Y-50443333D01*
X53963095Y-50395714D01*
X53915476Y-50300476D01*
X53915476Y-50252857D01*
X53963095Y-50157619D01*
X54010714Y-50110000D01*
X54105952Y-50062380D01*
X54296428Y-50062380D01*
X54391666Y-50110000D01*
X54439285Y-50157619D01*
X54486904Y-50252857D01*
X54486904Y-50300476D01*
X54439285Y-50395714D01*
X54391666Y-50443333D01*
X54296428Y-50490952D01*
X54105952Y-50490952D01*
X54010714Y-50538571D01*
X53963095Y-50586190D01*
X53915476Y-50681428D01*
X53915476Y-50871904D01*
X53963095Y-50967142D01*
X54010714Y-51014761D01*
X54105952Y-51062380D01*
X54296428Y-51062380D01*
X54391666Y-51014761D01*
X54439285Y-50967142D01*
X54486904Y-50871904D01*
X54486904Y-50681428D01*
X54439285Y-50586190D01*
X54391666Y-50538571D01*
X54296428Y-50490952D01*
X40892142Y-49287142D02*
X40844523Y-49334761D01*
X40701666Y-49382380D01*
X40606428Y-49382380D01*
X40463571Y-49334761D01*
X40368333Y-49239523D01*
X40320714Y-49144285D01*
X40273095Y-48953809D01*
X40273095Y-48810952D01*
X40320714Y-48620476D01*
X40368333Y-48525238D01*
X40463571Y-48430000D01*
X40606428Y-48382380D01*
X40701666Y-48382380D01*
X40844523Y-48430000D01*
X40892142Y-48477619D01*
X41844523Y-49382380D02*
X41273095Y-49382380D01*
X41558809Y-49382380D02*
X41558809Y-48382380D01*
X41463571Y-48525238D01*
X41368333Y-48620476D01*
X41273095Y-48668095D01*
X42701666Y-48382380D02*
X42511190Y-48382380D01*
X42415952Y-48430000D01*
X42368333Y-48477619D01*
X42273095Y-48620476D01*
X42225476Y-48810952D01*
X42225476Y-49191904D01*
X42273095Y-49287142D01*
X42320714Y-49334761D01*
X42415952Y-49382380D01*
X42606428Y-49382380D01*
X42701666Y-49334761D01*
X42749285Y-49287142D01*
X42796904Y-49191904D01*
X42796904Y-48953809D01*
X42749285Y-48858571D01*
X42701666Y-48810952D01*
X42606428Y-48763333D01*
X42415952Y-48763333D01*
X42320714Y-48810952D01*
X42273095Y-48858571D01*
X42225476Y-48953809D01*
X42457142Y-38117142D02*
X42409523Y-38164761D01*
X42266666Y-38212380D01*
X42171428Y-38212380D01*
X42028571Y-38164761D01*
X41933333Y-38069523D01*
X41885714Y-37974285D01*
X41838095Y-37783809D01*
X41838095Y-37640952D01*
X41885714Y-37450476D01*
X41933333Y-37355238D01*
X42028571Y-37260000D01*
X42171428Y-37212380D01*
X42266666Y-37212380D01*
X42409523Y-37260000D01*
X42457142Y-37307619D01*
X43409523Y-38212380D02*
X42838095Y-38212380D01*
X43123809Y-38212380D02*
X43123809Y-37212380D01*
X43028571Y-37355238D01*
X42933333Y-37450476D01*
X42838095Y-37498095D01*
X44314285Y-37212380D02*
X43838095Y-37212380D01*
X43790476Y-37688571D01*
X43838095Y-37640952D01*
X43933333Y-37593333D01*
X44171428Y-37593333D01*
X44266666Y-37640952D01*
X44314285Y-37688571D01*
X44361904Y-37783809D01*
X44361904Y-38021904D01*
X44314285Y-38117142D01*
X44266666Y-38164761D01*
X44171428Y-38212380D01*
X43933333Y-38212380D01*
X43838095Y-38164761D01*
X43790476Y-38117142D01*
X63632142Y-35357142D02*
X63584523Y-35404761D01*
X63441666Y-35452380D01*
X63346428Y-35452380D01*
X63203571Y-35404761D01*
X63108333Y-35309523D01*
X63060714Y-35214285D01*
X63013095Y-35023809D01*
X63013095Y-34880952D01*
X63060714Y-34690476D01*
X63108333Y-34595238D01*
X63203571Y-34500000D01*
X63346428Y-34452380D01*
X63441666Y-34452380D01*
X63584523Y-34500000D01*
X63632142Y-34547619D01*
X64013095Y-34547619D02*
X64060714Y-34500000D01*
X64155952Y-34452380D01*
X64394047Y-34452380D01*
X64489285Y-34500000D01*
X64536904Y-34547619D01*
X64584523Y-34642857D01*
X64584523Y-34738095D01*
X64536904Y-34880952D01*
X63965476Y-35452380D01*
X64584523Y-35452380D01*
X64917857Y-34452380D02*
X65536904Y-34452380D01*
X65203571Y-34833333D01*
X65346428Y-34833333D01*
X65441666Y-34880952D01*
X65489285Y-34928571D01*
X65536904Y-35023809D01*
X65536904Y-35261904D01*
X65489285Y-35357142D01*
X65441666Y-35404761D01*
X65346428Y-35452380D01*
X65060714Y-35452380D01*
X64965476Y-35404761D01*
X64917857Y-35357142D01*
X84757142Y-28227857D02*
X84804761Y-28275476D01*
X84852380Y-28418333D01*
X84852380Y-28513571D01*
X84804761Y-28656428D01*
X84709523Y-28751666D01*
X84614285Y-28799285D01*
X84423809Y-28846904D01*
X84280952Y-28846904D01*
X84090476Y-28799285D01*
X83995238Y-28751666D01*
X83900000Y-28656428D01*
X83852380Y-28513571D01*
X83852380Y-28418333D01*
X83900000Y-28275476D01*
X83947619Y-28227857D01*
X84852380Y-27275476D02*
X84852380Y-27846904D01*
X84852380Y-27561190D02*
X83852380Y-27561190D01*
X83995238Y-27656428D01*
X84090476Y-27751666D01*
X84138095Y-27846904D01*
X83947619Y-26894523D02*
X83900000Y-26846904D01*
X83852380Y-26751666D01*
X83852380Y-26513571D01*
X83900000Y-26418333D01*
X83947619Y-26370714D01*
X84042857Y-26323095D01*
X84138095Y-26323095D01*
X84280952Y-26370714D01*
X84852380Y-26942142D01*
X84852380Y-26323095D01*
X53058333Y-45727142D02*
X53010714Y-45774761D01*
X52867857Y-45822380D01*
X52772619Y-45822380D01*
X52629761Y-45774761D01*
X52534523Y-45679523D01*
X52486904Y-45584285D01*
X52439285Y-45393809D01*
X52439285Y-45250952D01*
X52486904Y-45060476D01*
X52534523Y-44965238D01*
X52629761Y-44870000D01*
X52772619Y-44822380D01*
X52867857Y-44822380D01*
X53010714Y-44870000D01*
X53058333Y-44917619D01*
X53915476Y-44822380D02*
X53725000Y-44822380D01*
X53629761Y-44870000D01*
X53582142Y-44917619D01*
X53486904Y-45060476D01*
X53439285Y-45250952D01*
X53439285Y-45631904D01*
X53486904Y-45727142D01*
X53534523Y-45774761D01*
X53629761Y-45822380D01*
X53820238Y-45822380D01*
X53915476Y-45774761D01*
X53963095Y-45727142D01*
X54010714Y-45631904D01*
X54010714Y-45393809D01*
X53963095Y-45298571D01*
X53915476Y-45250952D01*
X53820238Y-45203333D01*
X53629761Y-45203333D01*
X53534523Y-45250952D01*
X53486904Y-45298571D01*
X53439285Y-45393809D01*
X75287142Y-47322857D02*
X75334761Y-47370476D01*
X75382380Y-47513333D01*
X75382380Y-47608571D01*
X75334761Y-47751428D01*
X75239523Y-47846666D01*
X75144285Y-47894285D01*
X74953809Y-47941904D01*
X74810952Y-47941904D01*
X74620476Y-47894285D01*
X74525238Y-47846666D01*
X74430000Y-47751428D01*
X74382380Y-47608571D01*
X74382380Y-47513333D01*
X74430000Y-47370476D01*
X74477619Y-47322857D01*
X75382380Y-46370476D02*
X75382380Y-46941904D01*
X75382380Y-46656190D02*
X74382380Y-46656190D01*
X74525238Y-46751428D01*
X74620476Y-46846666D01*
X74668095Y-46941904D01*
X75382380Y-45418095D02*
X75382380Y-45989523D01*
X75382380Y-45703809D02*
X74382380Y-45703809D01*
X74525238Y-45799047D01*
X74620476Y-45894285D01*
X74668095Y-45989523D01*
X67052142Y-50807142D02*
X67004523Y-50854761D01*
X66861666Y-50902380D01*
X66766428Y-50902380D01*
X66623571Y-50854761D01*
X66528333Y-50759523D01*
X66480714Y-50664285D01*
X66433095Y-50473809D01*
X66433095Y-50330952D01*
X66480714Y-50140476D01*
X66528333Y-50045238D01*
X66623571Y-49950000D01*
X66766428Y-49902380D01*
X66861666Y-49902380D01*
X67004523Y-49950000D01*
X67052142Y-49997619D01*
X67433095Y-49997619D02*
X67480714Y-49950000D01*
X67575952Y-49902380D01*
X67814047Y-49902380D01*
X67909285Y-49950000D01*
X67956904Y-49997619D01*
X68004523Y-50092857D01*
X68004523Y-50188095D01*
X67956904Y-50330952D01*
X67385476Y-50902380D01*
X68004523Y-50902380D01*
X68623571Y-49902380D02*
X68718809Y-49902380D01*
X68814047Y-49950000D01*
X68861666Y-49997619D01*
X68909285Y-50092857D01*
X68956904Y-50283333D01*
X68956904Y-50521428D01*
X68909285Y-50711904D01*
X68861666Y-50807142D01*
X68814047Y-50854761D01*
X68718809Y-50902380D01*
X68623571Y-50902380D01*
X68528333Y-50854761D01*
X68480714Y-50807142D01*
X68433095Y-50711904D01*
X68385476Y-50521428D01*
X68385476Y-50283333D01*
X68433095Y-50092857D01*
X68480714Y-49997619D01*
X68528333Y-49950000D01*
X68623571Y-49902380D01*
X61277142Y-53667142D02*
X61229523Y-53714761D01*
X61086666Y-53762380D01*
X60991428Y-53762380D01*
X60848571Y-53714761D01*
X60753333Y-53619523D01*
X60705714Y-53524285D01*
X60658095Y-53333809D01*
X60658095Y-53190952D01*
X60705714Y-53000476D01*
X60753333Y-52905238D01*
X60848571Y-52810000D01*
X60991428Y-52762380D01*
X61086666Y-52762380D01*
X61229523Y-52810000D01*
X61277142Y-52857619D01*
X62229523Y-53762380D02*
X61658095Y-53762380D01*
X61943809Y-53762380D02*
X61943809Y-52762380D01*
X61848571Y-52905238D01*
X61753333Y-53000476D01*
X61658095Y-53048095D01*
X62562857Y-52762380D02*
X63229523Y-52762380D01*
X62800952Y-53762380D01*
X94587142Y-50522857D02*
X94634761Y-50570476D01*
X94682380Y-50713333D01*
X94682380Y-50808571D01*
X94634761Y-50951428D01*
X94539523Y-51046666D01*
X94444285Y-51094285D01*
X94253809Y-51141904D01*
X94110952Y-51141904D01*
X93920476Y-51094285D01*
X93825238Y-51046666D01*
X93730000Y-50951428D01*
X93682380Y-50808571D01*
X93682380Y-50713333D01*
X93730000Y-50570476D01*
X93777619Y-50522857D01*
X93777619Y-50141904D02*
X93730000Y-50094285D01*
X93682380Y-49999047D01*
X93682380Y-49760952D01*
X93730000Y-49665714D01*
X93777619Y-49618095D01*
X93872857Y-49570476D01*
X93968095Y-49570476D01*
X94110952Y-49618095D01*
X94682380Y-50189523D01*
X94682380Y-49570476D01*
X94015714Y-48713333D02*
X94682380Y-48713333D01*
X93634761Y-48951428D02*
X94349047Y-49189523D01*
X94349047Y-48570476D01*
X63868095Y-40972380D02*
X63868095Y-41781904D01*
X63915714Y-41877142D01*
X63963333Y-41924761D01*
X64058571Y-41972380D01*
X64249047Y-41972380D01*
X64344285Y-41924761D01*
X64391904Y-41877142D01*
X64439523Y-41781904D01*
X64439523Y-40972380D01*
X65344285Y-41305714D02*
X65344285Y-41972380D01*
X65106190Y-40924761D02*
X64868095Y-41639047D01*
X65487142Y-41639047D01*
X43173333Y-39630442D02*
X43125714Y-39678061D01*
X42982857Y-39725680D01*
X42887619Y-39725680D01*
X42744761Y-39678061D01*
X42649523Y-39582823D01*
X42601904Y-39487585D01*
X42554285Y-39297109D01*
X42554285Y-39154252D01*
X42601904Y-38963776D01*
X42649523Y-38868538D01*
X42744761Y-38773300D01*
X42887619Y-38725680D01*
X42982857Y-38725680D01*
X43125714Y-38773300D01*
X43173333Y-38820919D01*
X43506666Y-38725680D02*
X44125714Y-38725680D01*
X43792380Y-39106633D01*
X43935238Y-39106633D01*
X44030476Y-39154252D01*
X44078095Y-39201871D01*
X44125714Y-39297109D01*
X44125714Y-39535204D01*
X44078095Y-39630442D01*
X44030476Y-39678061D01*
X43935238Y-39725680D01*
X43649523Y-39725680D01*
X43554285Y-39678061D01*
X43506666Y-39630442D01*
X94244761Y-45977619D02*
X94149523Y-45930000D01*
X94054285Y-45834761D01*
X93911428Y-45691904D01*
X93816190Y-45644285D01*
X93720952Y-45644285D01*
X93768571Y-45882380D02*
X93673333Y-45834761D01*
X93578095Y-45739523D01*
X93530476Y-45549047D01*
X93530476Y-45215714D01*
X93578095Y-45025238D01*
X93673333Y-44930000D01*
X93768571Y-44882380D01*
X93959047Y-44882380D01*
X94054285Y-44930000D01*
X94149523Y-45025238D01*
X94197142Y-45215714D01*
X94197142Y-45549047D01*
X94149523Y-45739523D01*
X94054285Y-45834761D01*
X93959047Y-45882380D01*
X93768571Y-45882380D01*
X95149523Y-45882380D02*
X94578095Y-45882380D01*
X94863809Y-45882380D02*
X94863809Y-44882380D01*
X94768571Y-45025238D01*
X94673333Y-45120476D01*
X94578095Y-45168095D01*
X88792380Y-48211666D02*
X88316190Y-48545000D01*
X88792380Y-48783095D02*
X87792380Y-48783095D01*
X87792380Y-48402142D01*
X87840000Y-48306904D01*
X87887619Y-48259285D01*
X87982857Y-48211666D01*
X88125714Y-48211666D01*
X88220952Y-48259285D01*
X88268571Y-48306904D01*
X88316190Y-48402142D01*
X88316190Y-48783095D01*
X87792380Y-47878333D02*
X87792380Y-47211666D01*
X88792380Y-47640238D01*
X87312380Y-48226666D02*
X86836190Y-48560000D01*
X87312380Y-48798095D02*
X86312380Y-48798095D01*
X86312380Y-48417142D01*
X86360000Y-48321904D01*
X86407619Y-48274285D01*
X86502857Y-48226666D01*
X86645714Y-48226666D01*
X86740952Y-48274285D01*
X86788571Y-48321904D01*
X86836190Y-48417142D01*
X86836190Y-48798095D01*
X86312380Y-47369523D02*
X86312380Y-47560000D01*
X86360000Y-47655238D01*
X86407619Y-47702857D01*
X86550476Y-47798095D01*
X86740952Y-47845714D01*
X87121904Y-47845714D01*
X87217142Y-47798095D01*
X87264761Y-47750476D01*
X87312380Y-47655238D01*
X87312380Y-47464761D01*
X87264761Y-47369523D01*
X87217142Y-47321904D01*
X87121904Y-47274285D01*
X86883809Y-47274285D01*
X86788571Y-47321904D01*
X86740952Y-47369523D01*
X86693333Y-47464761D01*
X86693333Y-47655238D01*
X86740952Y-47750476D01*
X86788571Y-47798095D01*
X86883809Y-47845714D01*
X83537142Y-26472857D02*
X83584761Y-26520476D01*
X83632380Y-26663333D01*
X83632380Y-26758571D01*
X83584761Y-26901428D01*
X83489523Y-26996666D01*
X83394285Y-27044285D01*
X83203809Y-27091904D01*
X83060952Y-27091904D01*
X82870476Y-27044285D01*
X82775238Y-26996666D01*
X82680000Y-26901428D01*
X82632380Y-26758571D01*
X82632380Y-26663333D01*
X82680000Y-26520476D01*
X82727619Y-26472857D01*
X83632380Y-25520476D02*
X83632380Y-26091904D01*
X83632380Y-25806190D02*
X82632380Y-25806190D01*
X82775238Y-25901428D01*
X82870476Y-25996666D01*
X82918095Y-26091904D01*
X82965714Y-24663333D02*
X83632380Y-24663333D01*
X82584761Y-24901428D02*
X83299047Y-25139523D01*
X83299047Y-24520476D01*
X96142142Y-49082142D02*
X96094523Y-49129761D01*
X95951666Y-49177380D01*
X95856428Y-49177380D01*
X95713571Y-49129761D01*
X95618333Y-49034523D01*
X95570714Y-48939285D01*
X95523095Y-48748809D01*
X95523095Y-48605952D01*
X95570714Y-48415476D01*
X95618333Y-48320238D01*
X95713571Y-48225000D01*
X95856428Y-48177380D01*
X95951666Y-48177380D01*
X96094523Y-48225000D01*
X96142142Y-48272619D01*
X96523095Y-48272619D02*
X96570714Y-48225000D01*
X96665952Y-48177380D01*
X96904047Y-48177380D01*
X96999285Y-48225000D01*
X97046904Y-48272619D01*
X97094523Y-48367857D01*
X97094523Y-48463095D01*
X97046904Y-48605952D01*
X96475476Y-49177380D01*
X97094523Y-49177380D01*
X97475476Y-48272619D02*
X97523095Y-48225000D01*
X97618333Y-48177380D01*
X97856428Y-48177380D01*
X97951666Y-48225000D01*
X97999285Y-48272619D01*
X98046904Y-48367857D01*
X98046904Y-48463095D01*
X97999285Y-48605952D01*
X97427857Y-49177380D01*
X98046904Y-49177380D01*
X94128095Y-19957380D02*
X94128095Y-20766904D01*
X94175714Y-20862142D01*
X94223333Y-20909761D01*
X94318571Y-20957380D01*
X94509047Y-20957380D01*
X94604285Y-20909761D01*
X94651904Y-20862142D01*
X94699523Y-20766904D01*
X94699523Y-19957380D01*
X95080476Y-19957380D02*
X95699523Y-19957380D01*
X95366190Y-20338333D01*
X95509047Y-20338333D01*
X95604285Y-20385952D01*
X95651904Y-20433571D01*
X95699523Y-20528809D01*
X95699523Y-20766904D01*
X95651904Y-20862142D01*
X95604285Y-20909761D01*
X95509047Y-20957380D01*
X95223333Y-20957380D01*
X95128095Y-20909761D01*
X95080476Y-20862142D01*
X48973809Y-51652380D02*
X48973809Y-50652380D01*
X49450000Y-51652380D02*
X49450000Y-50652380D01*
X49830952Y-50652380D01*
X49926190Y-50700000D01*
X49973809Y-50747619D01*
X50021428Y-50842857D01*
X50021428Y-50985714D01*
X49973809Y-51080952D01*
X49926190Y-51128571D01*
X49830952Y-51176190D01*
X49450000Y-51176190D01*
X50973809Y-51652380D02*
X50402380Y-51652380D01*
X50688095Y-51652380D02*
X50688095Y-50652380D01*
X50592857Y-50795238D01*
X50497619Y-50890476D01*
X50402380Y-50938095D01*
X99642380Y-45226666D02*
X99166190Y-45560000D01*
X99642380Y-45798095D02*
X98642380Y-45798095D01*
X98642380Y-45417142D01*
X98690000Y-45321904D01*
X98737619Y-45274285D01*
X98832857Y-45226666D01*
X98975714Y-45226666D01*
X99070952Y-45274285D01*
X99118571Y-45321904D01*
X99166190Y-45417142D01*
X99166190Y-45798095D01*
X99070952Y-44655238D02*
X99023333Y-44750476D01*
X98975714Y-44798095D01*
X98880476Y-44845714D01*
X98832857Y-44845714D01*
X98737619Y-44798095D01*
X98690000Y-44750476D01*
X98642380Y-44655238D01*
X98642380Y-44464761D01*
X98690000Y-44369523D01*
X98737619Y-44321904D01*
X98832857Y-44274285D01*
X98880476Y-44274285D01*
X98975714Y-44321904D01*
X99023333Y-44369523D01*
X99070952Y-44464761D01*
X99070952Y-44655238D01*
X99118571Y-44750476D01*
X99166190Y-44798095D01*
X99261428Y-44845714D01*
X99451904Y-44845714D01*
X99547142Y-44798095D01*
X99594761Y-44750476D01*
X99642380Y-44655238D01*
X99642380Y-44464761D01*
X99594761Y-44369523D01*
X99547142Y-44321904D01*
X99451904Y-44274285D01*
X99261428Y-44274285D01*
X99166190Y-44321904D01*
X99118571Y-44369523D01*
X99070952Y-44464761D01*
M02*
