M48
; DRILL file {KiCad (5.1.5-0-10_14)} date 2020 September 24, Thursday 22:33:02
; FORMAT={-:-/ absolute / metric / decimal}
; #@! TF.CreationDate,2020-09-24T22:33:02+08:00
; #@! TF.GenerationSoftware,Kicad,Pcbnew,(5.1.5-0-10_14)
; #@! TF.FileFunction,Plated,1,2,PTH
FMAT,2
METRIC
T1C0.400
T2C1.000
T3C2.200
%
G90
G05
T1
X35.941Y-25.255
X37.962Y-25.323
X39.752Y-26.054
X42.864Y-41.576
X43.781Y-50.36
X47.709Y-42.497
X48.872Y-49.093
X49.351Y-50.932
X50.8Y-32.096
X51.053Y-27.567
X51.114Y-49.875
X51.561Y-45.848
X51.812Y-47.892
X53.526Y-28.202
X55.508Y-36.87
X55.765Y-30.404
X55.866Y-26.899
X58.402Y-26.929
X59.042Y-30.571
X59.134Y-39.759
X59.63Y-36.02
X59.852Y-37.47
X60.395Y-34.297
X61.477Y-30.52
X63.473Y-28.6
X63.516Y-30.266
X64.256Y-38.996
X66.013Y-27.836
X68.562Y-30.009
X68.73Y-28.405
X70.115Y-45.864
X71.427Y-24.406
X73.442Y-47.55
X76.195Y-29.334
X76.258Y-28.124
X76.507Y-22.987
X77.5Y-48.0
X77.5Y-49.0
X77.642Y-44.344
X77.654Y-42.082
X79.025Y-27.696
X79.04Y-30.259
X79.047Y-23.956
X79.789Y-44.875
X81.23Y-30.718
X82.737Y-32.225
X83.055Y-36.335
X83.946Y-43.426
X84.086Y-23.505
X84.326Y-37.605
X84.515Y-27.445
X85.793Y-45.701
X87.722Y-25.469
X87.723Y-29.651
X88.346Y-35.523
X88.515Y-33.84
X89.104Y-36.987
X89.626Y-31.874
X89.866Y-30.871
X90.235Y-33.317
X91.236Y-32.941
X91.307Y-44.422
X91.406Y-50.609
X92.549Y-44.273
X93.985Y-36.981
X95.103Y-36.996
X96.214Y-42.923
X96.557Y-23.264
X97.252Y-32.44
X98.665Y-29.605
X99.163Y-22.179
X99.896Y-36.916
X100.718Y-35.686
X101.261Y-26.312
X101.505Y-24.905
T2
X38.93Y-35.32
X38.93Y-37.82
T3
X102.13Y-51.25
X32.76Y-51.17
T0
M30
