%FSLAX45Y45*%
G04 Gerber Fmt 4.5, Leading zero omitted, Abs format (unit mm)*
G04 Created by KiCad (PCBNEW (5.1.5-0-10_14)) date 2020-09-24 22:40:25*
%MOMM*%
%LPD*%
G04 APERTURE LIST*
%TA.AperFunction,Profile*%
%ADD10C,0.100000*%
%TD*%
%ADD11C,0.200000*%
%ADD12C,0.300000*%
G04 APERTURE END LIST*
D10*
X14915000Y-8600518D02*
X14915000Y-9456422D01*
X17434560Y-8600000D02*
X17436084Y-9450000D01*
X14915000Y-9456422D02*
X17436084Y-9450000D01*
X14915000Y-8600518D02*
X17434560Y-8600000D01*
D11*
X16529850Y-8847556D02*
X16629850Y-8947556D01*
X16629850Y-8847556D02*
X16529850Y-8947556D01*
X16529850Y-9097556D02*
X16629850Y-9197556D01*
X16629850Y-9097556D02*
X16529850Y-9197556D01*
X15085500Y-8887000D02*
G75*
G03X15085500Y-8887000I-54500J0D01*
G01*
X15350500Y-9212000D02*
G75*
G03X15350500Y-9212000I-54500J0D01*
G01*
X15585186Y-8736194D02*
X15585186Y-8846194D01*
X15530186Y-8791194D02*
X15640186Y-8791194D01*
X15585186Y-9186194D02*
X15585186Y-9296194D01*
X15530186Y-9241194D02*
X15640186Y-9241194D01*
X16235186Y-8736194D02*
X16235186Y-8846194D01*
X16180186Y-8791194D02*
X16290186Y-8791194D01*
X16235186Y-9186194D02*
X16235186Y-9296194D01*
X16180186Y-9241194D02*
X16290186Y-9241194D01*
D12*
X15196428Y-9927136D02*
X15196428Y-9627136D01*
X15267857Y-9627136D01*
X15310714Y-9641422D01*
X15339286Y-9669994D01*
X15353571Y-9698565D01*
X15367857Y-9755708D01*
X15367857Y-9798565D01*
X15353571Y-9855708D01*
X15339286Y-9884279D01*
X15310714Y-9912851D01*
X15267857Y-9927136D01*
X15196428Y-9927136D01*
X15496428Y-9927136D02*
X15496428Y-9727136D01*
X15496428Y-9784279D02*
X15510714Y-9755708D01*
X15525000Y-9741422D01*
X15553571Y-9727136D01*
X15582143Y-9727136D01*
X15682143Y-9927136D02*
X15682143Y-9727136D01*
X15682143Y-9627136D02*
X15667857Y-9641422D01*
X15682143Y-9655708D01*
X15696428Y-9641422D01*
X15682143Y-9627136D01*
X15682143Y-9655708D01*
X15867857Y-9927136D02*
X15839286Y-9912851D01*
X15825000Y-9884279D01*
X15825000Y-9627136D01*
X16025000Y-9927136D02*
X15996428Y-9912851D01*
X15982143Y-9884279D01*
X15982143Y-9627136D01*
X16367857Y-9927136D02*
X16367857Y-9627136D01*
X16467857Y-9841422D01*
X16567857Y-9627136D01*
X16567857Y-9927136D01*
X16839286Y-9927136D02*
X16839286Y-9769994D01*
X16825000Y-9741422D01*
X16796428Y-9727136D01*
X16739286Y-9727136D01*
X16710714Y-9741422D01*
X16839286Y-9912851D02*
X16810714Y-9927136D01*
X16739286Y-9927136D01*
X16710714Y-9912851D01*
X16696428Y-9884279D01*
X16696428Y-9855708D01*
X16710714Y-9827136D01*
X16739286Y-9812851D01*
X16810714Y-9812851D01*
X16839286Y-9798565D01*
X16982143Y-9727136D02*
X16982143Y-10027136D01*
X16982143Y-9741422D02*
X17010714Y-9727136D01*
X17067857Y-9727136D01*
X17096428Y-9741422D01*
X17110714Y-9755708D01*
X17125000Y-9784279D01*
X17125000Y-9869994D01*
X17110714Y-9898565D01*
X17096428Y-9912851D01*
X17067857Y-9927136D01*
X17010714Y-9927136D01*
X16982143Y-9912851D01*
X17253571Y-9898565D02*
X17267857Y-9912851D01*
X17253571Y-9927136D01*
X17239286Y-9912851D01*
X17253571Y-9898565D01*
X17253571Y-9927136D01*
X17253571Y-9741422D02*
X17267857Y-9755708D01*
X17253571Y-9769994D01*
X17239286Y-9755708D01*
X17253571Y-9741422D01*
X17253571Y-9769994D01*
X14810000Y-10371422D02*
X14910000Y-10471422D01*
X14910000Y-10371422D02*
X14810000Y-10471422D01*
X15353571Y-10557136D02*
X15182143Y-10557136D01*
X15267857Y-10557136D02*
X15267857Y-10257136D01*
X15239286Y-10299994D01*
X15210714Y-10328565D01*
X15182143Y-10342851D01*
X15482143Y-10528565D02*
X15496428Y-10542851D01*
X15482143Y-10557136D01*
X15467857Y-10542851D01*
X15482143Y-10528565D01*
X15482143Y-10557136D01*
X15682143Y-10257136D02*
X15710714Y-10257136D01*
X15739286Y-10271422D01*
X15753571Y-10285708D01*
X15767857Y-10314279D01*
X15782143Y-10371422D01*
X15782143Y-10442851D01*
X15767857Y-10499994D01*
X15753571Y-10528565D01*
X15739286Y-10542851D01*
X15710714Y-10557136D01*
X15682143Y-10557136D01*
X15653571Y-10542851D01*
X15639286Y-10528565D01*
X15625000Y-10499994D01*
X15610714Y-10442851D01*
X15610714Y-10371422D01*
X15625000Y-10314279D01*
X15639286Y-10285708D01*
X15653571Y-10271422D01*
X15682143Y-10257136D01*
X15967857Y-10257136D02*
X15996428Y-10257136D01*
X16025000Y-10271422D01*
X16039286Y-10285708D01*
X16053571Y-10314279D01*
X16067857Y-10371422D01*
X16067857Y-10442851D01*
X16053571Y-10499994D01*
X16039286Y-10528565D01*
X16025000Y-10542851D01*
X15996428Y-10557136D01*
X15967857Y-10557136D01*
X15939286Y-10542851D01*
X15925000Y-10528565D01*
X15910714Y-10499994D01*
X15896428Y-10442851D01*
X15896428Y-10371422D01*
X15910714Y-10314279D01*
X15925000Y-10285708D01*
X15939286Y-10271422D01*
X15967857Y-10257136D01*
X16196428Y-10557136D02*
X16196428Y-10357136D01*
X16196428Y-10385708D02*
X16210714Y-10371422D01*
X16239286Y-10357136D01*
X16282143Y-10357136D01*
X16310714Y-10371422D01*
X16325000Y-10399994D01*
X16325000Y-10557136D01*
X16325000Y-10399994D02*
X16339286Y-10371422D01*
X16367857Y-10357136D01*
X16410714Y-10357136D01*
X16439286Y-10371422D01*
X16453571Y-10399994D01*
X16453571Y-10557136D01*
X16596428Y-10557136D02*
X16596428Y-10357136D01*
X16596428Y-10385708D02*
X16610714Y-10371422D01*
X16639286Y-10357136D01*
X16682143Y-10357136D01*
X16710714Y-10371422D01*
X16725000Y-10399994D01*
X16725000Y-10557136D01*
X16725000Y-10399994D02*
X16739286Y-10371422D01*
X16767857Y-10357136D01*
X16810714Y-10357136D01*
X16839286Y-10371422D01*
X16853571Y-10399994D01*
X16853571Y-10557136D01*
X17439286Y-10242851D02*
X17182143Y-10628565D01*
X17825000Y-10257136D02*
X17853571Y-10257136D01*
X17882143Y-10271422D01*
X17896428Y-10285708D01*
X17910714Y-10314279D01*
X17925000Y-10371422D01*
X17925000Y-10442851D01*
X17910714Y-10499994D01*
X17896428Y-10528565D01*
X17882143Y-10542851D01*
X17853571Y-10557136D01*
X17825000Y-10557136D01*
X17796428Y-10542851D01*
X17782143Y-10528565D01*
X17767857Y-10499994D01*
X17753571Y-10442851D01*
X17753571Y-10371422D01*
X17767857Y-10314279D01*
X17782143Y-10285708D01*
X17796428Y-10271422D01*
X17825000Y-10257136D01*
X18053571Y-10528565D02*
X18067857Y-10542851D01*
X18053571Y-10557136D01*
X18039286Y-10542851D01*
X18053571Y-10528565D01*
X18053571Y-10557136D01*
X18253571Y-10257136D02*
X18282143Y-10257136D01*
X18310714Y-10271422D01*
X18325000Y-10285708D01*
X18339286Y-10314279D01*
X18353571Y-10371422D01*
X18353571Y-10442851D01*
X18339286Y-10499994D01*
X18325000Y-10528565D01*
X18310714Y-10542851D01*
X18282143Y-10557136D01*
X18253571Y-10557136D01*
X18225000Y-10542851D01*
X18210714Y-10528565D01*
X18196428Y-10499994D01*
X18182143Y-10442851D01*
X18182143Y-10371422D01*
X18196428Y-10314279D01*
X18210714Y-10285708D01*
X18225000Y-10271422D01*
X18253571Y-10257136D01*
X18453571Y-10257136D02*
X18639286Y-10257136D01*
X18539286Y-10371422D01*
X18582143Y-10371422D01*
X18610714Y-10385708D01*
X18625000Y-10399994D01*
X18639286Y-10428565D01*
X18639286Y-10499994D01*
X18625000Y-10528565D01*
X18610714Y-10542851D01*
X18582143Y-10557136D01*
X18496428Y-10557136D01*
X18467857Y-10542851D01*
X18453571Y-10528565D01*
X18782143Y-10557136D02*
X18839286Y-10557136D01*
X18867857Y-10542851D01*
X18882143Y-10528565D01*
X18910714Y-10485708D01*
X18925000Y-10428565D01*
X18925000Y-10314279D01*
X18910714Y-10285708D01*
X18896428Y-10271422D01*
X18867857Y-10257136D01*
X18810714Y-10257136D01*
X18782143Y-10271422D01*
X18767857Y-10285708D01*
X18753571Y-10314279D01*
X18753571Y-10385708D01*
X18767857Y-10414279D01*
X18782143Y-10428565D01*
X18810714Y-10442851D01*
X18867857Y-10442851D01*
X18896428Y-10428565D01*
X18910714Y-10414279D01*
X18925000Y-10385708D01*
X19039286Y-10257136D02*
X19039286Y-10314279D01*
X19153571Y-10257136D02*
X19153571Y-10314279D01*
X19596428Y-10671422D02*
X19582143Y-10657136D01*
X19553571Y-10614279D01*
X19539286Y-10585708D01*
X19525000Y-10542851D01*
X19510714Y-10471422D01*
X19510714Y-10414279D01*
X19525000Y-10342851D01*
X19539286Y-10299994D01*
X19553571Y-10271422D01*
X19582143Y-10228565D01*
X19596428Y-10214279D01*
X19696428Y-10285708D02*
X19710714Y-10271422D01*
X19739286Y-10257136D01*
X19810714Y-10257136D01*
X19839286Y-10271422D01*
X19853571Y-10285708D01*
X19867857Y-10314279D01*
X19867857Y-10342851D01*
X19853571Y-10385708D01*
X19682143Y-10557136D01*
X19867857Y-10557136D01*
X20225000Y-10557136D02*
X20225000Y-10257136D01*
X20353571Y-10557136D02*
X20353571Y-10399994D01*
X20339286Y-10371422D01*
X20310714Y-10357136D01*
X20267857Y-10357136D01*
X20239286Y-10371422D01*
X20225000Y-10385708D01*
X20539286Y-10557136D02*
X20510714Y-10542851D01*
X20496428Y-10528565D01*
X20482143Y-10499994D01*
X20482143Y-10414279D01*
X20496428Y-10385708D01*
X20510714Y-10371422D01*
X20539286Y-10357136D01*
X20582143Y-10357136D01*
X20610714Y-10371422D01*
X20625000Y-10385708D01*
X20639286Y-10414279D01*
X20639286Y-10499994D01*
X20625000Y-10528565D01*
X20610714Y-10542851D01*
X20582143Y-10557136D01*
X20539286Y-10557136D01*
X20810714Y-10557136D02*
X20782143Y-10542851D01*
X20767857Y-10514279D01*
X20767857Y-10257136D01*
X21039286Y-10542851D02*
X21010714Y-10557136D01*
X20953571Y-10557136D01*
X20925000Y-10542851D01*
X20910714Y-10514279D01*
X20910714Y-10399994D01*
X20925000Y-10371422D01*
X20953571Y-10357136D01*
X21010714Y-10357136D01*
X21039286Y-10371422D01*
X21053571Y-10399994D01*
X21053571Y-10428565D01*
X20910714Y-10457136D01*
X21167857Y-10542851D02*
X21196428Y-10557136D01*
X21253571Y-10557136D01*
X21282143Y-10542851D01*
X21296428Y-10514279D01*
X21296428Y-10499994D01*
X21282143Y-10471422D01*
X21253571Y-10457136D01*
X21210714Y-10457136D01*
X21182143Y-10442851D01*
X21167857Y-10414279D01*
X21167857Y-10399994D01*
X21182143Y-10371422D01*
X21210714Y-10357136D01*
X21253571Y-10357136D01*
X21282143Y-10371422D01*
X21396428Y-10671422D02*
X21410714Y-10657136D01*
X21439286Y-10614279D01*
X21453571Y-10585708D01*
X21467857Y-10542851D01*
X21482143Y-10471422D01*
X21482143Y-10414279D01*
X21467857Y-10342851D01*
X21453571Y-10299994D01*
X21439286Y-10271422D01*
X21410714Y-10228565D01*
X21396428Y-10214279D01*
X14910000Y-10817422D02*
G75*
G03X14910000Y-10817422I-54500J0D01*
G01*
X15353571Y-10953136D02*
X15182143Y-10953136D01*
X15267857Y-10953136D02*
X15267857Y-10653136D01*
X15239286Y-10695994D01*
X15210714Y-10724565D01*
X15182143Y-10738851D01*
X15482143Y-10924565D02*
X15496428Y-10938851D01*
X15482143Y-10953136D01*
X15467857Y-10938851D01*
X15482143Y-10924565D01*
X15482143Y-10953136D01*
X15682143Y-10653136D02*
X15710714Y-10653136D01*
X15739286Y-10667422D01*
X15753571Y-10681708D01*
X15767857Y-10710279D01*
X15782143Y-10767422D01*
X15782143Y-10838851D01*
X15767857Y-10895994D01*
X15753571Y-10924565D01*
X15739286Y-10938851D01*
X15710714Y-10953136D01*
X15682143Y-10953136D01*
X15653571Y-10938851D01*
X15639286Y-10924565D01*
X15625000Y-10895994D01*
X15610714Y-10838851D01*
X15610714Y-10767422D01*
X15625000Y-10710279D01*
X15639286Y-10681708D01*
X15653571Y-10667422D01*
X15682143Y-10653136D01*
X15925000Y-10953136D02*
X15982143Y-10953136D01*
X16010714Y-10938851D01*
X16025000Y-10924565D01*
X16053571Y-10881708D01*
X16067857Y-10824565D01*
X16067857Y-10710279D01*
X16053571Y-10681708D01*
X16039286Y-10667422D01*
X16010714Y-10653136D01*
X15953571Y-10653136D01*
X15925000Y-10667422D01*
X15910714Y-10681708D01*
X15896428Y-10710279D01*
X15896428Y-10781708D01*
X15910714Y-10810279D01*
X15925000Y-10824565D01*
X15953571Y-10838851D01*
X16010714Y-10838851D01*
X16039286Y-10824565D01*
X16053571Y-10810279D01*
X16067857Y-10781708D01*
X16196428Y-10953136D02*
X16196428Y-10753136D01*
X16196428Y-10781708D02*
X16210714Y-10767422D01*
X16239286Y-10753136D01*
X16282143Y-10753136D01*
X16310714Y-10767422D01*
X16325000Y-10795994D01*
X16325000Y-10953136D01*
X16325000Y-10795994D02*
X16339286Y-10767422D01*
X16367857Y-10753136D01*
X16410714Y-10753136D01*
X16439286Y-10767422D01*
X16453571Y-10795994D01*
X16453571Y-10953136D01*
X16596428Y-10953136D02*
X16596428Y-10753136D01*
X16596428Y-10781708D02*
X16610714Y-10767422D01*
X16639286Y-10753136D01*
X16682143Y-10753136D01*
X16710714Y-10767422D01*
X16725000Y-10795994D01*
X16725000Y-10953136D01*
X16725000Y-10795994D02*
X16739286Y-10767422D01*
X16767857Y-10753136D01*
X16810714Y-10753136D01*
X16839286Y-10767422D01*
X16853571Y-10795994D01*
X16853571Y-10953136D01*
X17439286Y-10638851D02*
X17182143Y-11024565D01*
X17825000Y-10653136D02*
X17853571Y-10653136D01*
X17882143Y-10667422D01*
X17896428Y-10681708D01*
X17910714Y-10710279D01*
X17925000Y-10767422D01*
X17925000Y-10838851D01*
X17910714Y-10895994D01*
X17896428Y-10924565D01*
X17882143Y-10938851D01*
X17853571Y-10953136D01*
X17825000Y-10953136D01*
X17796428Y-10938851D01*
X17782143Y-10924565D01*
X17767857Y-10895994D01*
X17753571Y-10838851D01*
X17753571Y-10767422D01*
X17767857Y-10710279D01*
X17782143Y-10681708D01*
X17796428Y-10667422D01*
X17825000Y-10653136D01*
X18053571Y-10924565D02*
X18067857Y-10938851D01*
X18053571Y-10953136D01*
X18039286Y-10938851D01*
X18053571Y-10924565D01*
X18053571Y-10953136D01*
X18253571Y-10653136D02*
X18282143Y-10653136D01*
X18310714Y-10667422D01*
X18325000Y-10681708D01*
X18339286Y-10710279D01*
X18353571Y-10767422D01*
X18353571Y-10838851D01*
X18339286Y-10895994D01*
X18325000Y-10924565D01*
X18310714Y-10938851D01*
X18282143Y-10953136D01*
X18253571Y-10953136D01*
X18225000Y-10938851D01*
X18210714Y-10924565D01*
X18196428Y-10895994D01*
X18182143Y-10838851D01*
X18182143Y-10767422D01*
X18196428Y-10710279D01*
X18210714Y-10681708D01*
X18225000Y-10667422D01*
X18253571Y-10653136D01*
X18610714Y-10753136D02*
X18610714Y-10953136D01*
X18539286Y-10638851D02*
X18467857Y-10853136D01*
X18653571Y-10853136D01*
X18739286Y-10653136D02*
X18925000Y-10653136D01*
X18825000Y-10767422D01*
X18867857Y-10767422D01*
X18896428Y-10781708D01*
X18910714Y-10795994D01*
X18925000Y-10824565D01*
X18925000Y-10895994D01*
X18910714Y-10924565D01*
X18896428Y-10938851D01*
X18867857Y-10953136D01*
X18782143Y-10953136D01*
X18753571Y-10938851D01*
X18739286Y-10924565D01*
X19039286Y-10653136D02*
X19039286Y-10710279D01*
X19153571Y-10653136D02*
X19153571Y-10710279D01*
X19596428Y-11067422D02*
X19582143Y-11053136D01*
X19553571Y-11010279D01*
X19539286Y-10981708D01*
X19525000Y-10938851D01*
X19510714Y-10867422D01*
X19510714Y-10810279D01*
X19525000Y-10738851D01*
X19539286Y-10695994D01*
X19553571Y-10667422D01*
X19582143Y-10624565D01*
X19596428Y-10610279D01*
X19696428Y-10681708D02*
X19710714Y-10667422D01*
X19739286Y-10653136D01*
X19810714Y-10653136D01*
X19839286Y-10667422D01*
X19853571Y-10681708D01*
X19867857Y-10710279D01*
X19867857Y-10738851D01*
X19853571Y-10781708D01*
X19682143Y-10953136D01*
X19867857Y-10953136D01*
X20225000Y-10953136D02*
X20225000Y-10653136D01*
X20353571Y-10953136D02*
X20353571Y-10795994D01*
X20339286Y-10767422D01*
X20310714Y-10753136D01*
X20267857Y-10753136D01*
X20239286Y-10767422D01*
X20225000Y-10781708D01*
X20539286Y-10953136D02*
X20510714Y-10938851D01*
X20496428Y-10924565D01*
X20482143Y-10895994D01*
X20482143Y-10810279D01*
X20496428Y-10781708D01*
X20510714Y-10767422D01*
X20539286Y-10753136D01*
X20582143Y-10753136D01*
X20610714Y-10767422D01*
X20625000Y-10781708D01*
X20639286Y-10810279D01*
X20639286Y-10895994D01*
X20625000Y-10924565D01*
X20610714Y-10938851D01*
X20582143Y-10953136D01*
X20539286Y-10953136D01*
X20810714Y-10953136D02*
X20782143Y-10938851D01*
X20767857Y-10910279D01*
X20767857Y-10653136D01*
X21039286Y-10938851D02*
X21010714Y-10953136D01*
X20953571Y-10953136D01*
X20925000Y-10938851D01*
X20910714Y-10910279D01*
X20910714Y-10795994D01*
X20925000Y-10767422D01*
X20953571Y-10753136D01*
X21010714Y-10753136D01*
X21039286Y-10767422D01*
X21053571Y-10795994D01*
X21053571Y-10824565D01*
X20910714Y-10853136D01*
X21167857Y-10938851D02*
X21196428Y-10953136D01*
X21253571Y-10953136D01*
X21282143Y-10938851D01*
X21296428Y-10910279D01*
X21296428Y-10895994D01*
X21282143Y-10867422D01*
X21253571Y-10853136D01*
X21210714Y-10853136D01*
X21182143Y-10838851D01*
X21167857Y-10810279D01*
X21167857Y-10795994D01*
X21182143Y-10767422D01*
X21210714Y-10753136D01*
X21253571Y-10753136D01*
X21282143Y-10767422D01*
X21396428Y-11067422D02*
X21410714Y-11053136D01*
X21439286Y-11010279D01*
X21453571Y-10981708D01*
X21467857Y-10938851D01*
X21482143Y-10867422D01*
X21482143Y-10810279D01*
X21467857Y-10738851D01*
X21453571Y-10695994D01*
X21439286Y-10667422D01*
X21410714Y-10624565D01*
X21396428Y-10610279D01*
X14855000Y-11158422D02*
X14855000Y-11268422D01*
X14800000Y-11213422D02*
X14910000Y-11213422D01*
X15353571Y-11349136D02*
X15182143Y-11349136D01*
X15267857Y-11349136D02*
X15267857Y-11049136D01*
X15239286Y-11091994D01*
X15210714Y-11120565D01*
X15182143Y-11134851D01*
X15482143Y-11320565D02*
X15496428Y-11334851D01*
X15482143Y-11349136D01*
X15467857Y-11334851D01*
X15482143Y-11320565D01*
X15482143Y-11349136D01*
X15782143Y-11349136D02*
X15610714Y-11349136D01*
X15696428Y-11349136D02*
X15696428Y-11049136D01*
X15667857Y-11091994D01*
X15639286Y-11120565D01*
X15610714Y-11134851D01*
X15967857Y-11049136D02*
X15996428Y-11049136D01*
X16025000Y-11063422D01*
X16039286Y-11077708D01*
X16053571Y-11106279D01*
X16067857Y-11163422D01*
X16067857Y-11234851D01*
X16053571Y-11291993D01*
X16039286Y-11320565D01*
X16025000Y-11334851D01*
X15996428Y-11349136D01*
X15967857Y-11349136D01*
X15939286Y-11334851D01*
X15925000Y-11320565D01*
X15910714Y-11291993D01*
X15896428Y-11234851D01*
X15896428Y-11163422D01*
X15910714Y-11106279D01*
X15925000Y-11077708D01*
X15939286Y-11063422D01*
X15967857Y-11049136D01*
X16196428Y-11349136D02*
X16196428Y-11149136D01*
X16196428Y-11177708D02*
X16210714Y-11163422D01*
X16239286Y-11149136D01*
X16282143Y-11149136D01*
X16310714Y-11163422D01*
X16325000Y-11191993D01*
X16325000Y-11349136D01*
X16325000Y-11191993D02*
X16339286Y-11163422D01*
X16367857Y-11149136D01*
X16410714Y-11149136D01*
X16439286Y-11163422D01*
X16453571Y-11191993D01*
X16453571Y-11349136D01*
X16596428Y-11349136D02*
X16596428Y-11149136D01*
X16596428Y-11177708D02*
X16610714Y-11163422D01*
X16639286Y-11149136D01*
X16682143Y-11149136D01*
X16710714Y-11163422D01*
X16725000Y-11191993D01*
X16725000Y-11349136D01*
X16725000Y-11191993D02*
X16739286Y-11163422D01*
X16767857Y-11149136D01*
X16810714Y-11149136D01*
X16839286Y-11163422D01*
X16853571Y-11191993D01*
X16853571Y-11349136D01*
X17439286Y-11034851D02*
X17182143Y-11420565D01*
X17825000Y-11049136D02*
X17853571Y-11049136D01*
X17882143Y-11063422D01*
X17896428Y-11077708D01*
X17910714Y-11106279D01*
X17925000Y-11163422D01*
X17925000Y-11234851D01*
X17910714Y-11291993D01*
X17896428Y-11320565D01*
X17882143Y-11334851D01*
X17853571Y-11349136D01*
X17825000Y-11349136D01*
X17796428Y-11334851D01*
X17782143Y-11320565D01*
X17767857Y-11291993D01*
X17753571Y-11234851D01*
X17753571Y-11163422D01*
X17767857Y-11106279D01*
X17782143Y-11077708D01*
X17796428Y-11063422D01*
X17825000Y-11049136D01*
X18053571Y-11320565D02*
X18067857Y-11334851D01*
X18053571Y-11349136D01*
X18039286Y-11334851D01*
X18053571Y-11320565D01*
X18053571Y-11349136D01*
X18253571Y-11049136D02*
X18282143Y-11049136D01*
X18310714Y-11063422D01*
X18325000Y-11077708D01*
X18339286Y-11106279D01*
X18353571Y-11163422D01*
X18353571Y-11234851D01*
X18339286Y-11291993D01*
X18325000Y-11320565D01*
X18310714Y-11334851D01*
X18282143Y-11349136D01*
X18253571Y-11349136D01*
X18225000Y-11334851D01*
X18210714Y-11320565D01*
X18196428Y-11291993D01*
X18182143Y-11234851D01*
X18182143Y-11163422D01*
X18196428Y-11106279D01*
X18210714Y-11077708D01*
X18225000Y-11063422D01*
X18253571Y-11049136D01*
X18610714Y-11149136D02*
X18610714Y-11349136D01*
X18539286Y-11034851D02*
X18467857Y-11249136D01*
X18653571Y-11249136D01*
X18739286Y-11049136D02*
X18925000Y-11049136D01*
X18825000Y-11163422D01*
X18867857Y-11163422D01*
X18896428Y-11177708D01*
X18910714Y-11191993D01*
X18925000Y-11220565D01*
X18925000Y-11291993D01*
X18910714Y-11320565D01*
X18896428Y-11334851D01*
X18867857Y-11349136D01*
X18782143Y-11349136D01*
X18753571Y-11334851D01*
X18739286Y-11320565D01*
X19039286Y-11049136D02*
X19039286Y-11106279D01*
X19153571Y-11049136D02*
X19153571Y-11106279D01*
X19596428Y-11463422D02*
X19582143Y-11449136D01*
X19553571Y-11406279D01*
X19539286Y-11377708D01*
X19525000Y-11334851D01*
X19510714Y-11263422D01*
X19510714Y-11206279D01*
X19525000Y-11134851D01*
X19539286Y-11091994D01*
X19553571Y-11063422D01*
X19582143Y-11020565D01*
X19596428Y-11006279D01*
X19839286Y-11149136D02*
X19839286Y-11349136D01*
X19767857Y-11034851D02*
X19696428Y-11249136D01*
X19882143Y-11249136D01*
X20225000Y-11349136D02*
X20225000Y-11049136D01*
X20353571Y-11349136D02*
X20353571Y-11191993D01*
X20339286Y-11163422D01*
X20310714Y-11149136D01*
X20267857Y-11149136D01*
X20239286Y-11163422D01*
X20225000Y-11177708D01*
X20539286Y-11349136D02*
X20510714Y-11334851D01*
X20496428Y-11320565D01*
X20482143Y-11291993D01*
X20482143Y-11206279D01*
X20496428Y-11177708D01*
X20510714Y-11163422D01*
X20539286Y-11149136D01*
X20582143Y-11149136D01*
X20610714Y-11163422D01*
X20625000Y-11177708D01*
X20639286Y-11206279D01*
X20639286Y-11291993D01*
X20625000Y-11320565D01*
X20610714Y-11334851D01*
X20582143Y-11349136D01*
X20539286Y-11349136D01*
X20810714Y-11349136D02*
X20782143Y-11334851D01*
X20767857Y-11306279D01*
X20767857Y-11049136D01*
X21039286Y-11334851D02*
X21010714Y-11349136D01*
X20953571Y-11349136D01*
X20925000Y-11334851D01*
X20910714Y-11306279D01*
X20910714Y-11191993D01*
X20925000Y-11163422D01*
X20953571Y-11149136D01*
X21010714Y-11149136D01*
X21039286Y-11163422D01*
X21053571Y-11191993D01*
X21053571Y-11220565D01*
X20910714Y-11249136D01*
X21167857Y-11334851D02*
X21196428Y-11349136D01*
X21253571Y-11349136D01*
X21282143Y-11334851D01*
X21296428Y-11306279D01*
X21296428Y-11291993D01*
X21282143Y-11263422D01*
X21253571Y-11249136D01*
X21210714Y-11249136D01*
X21182143Y-11234851D01*
X21167857Y-11206279D01*
X21167857Y-11191993D01*
X21182143Y-11163422D01*
X21210714Y-11149136D01*
X21253571Y-11149136D01*
X21282143Y-11163422D01*
X21396428Y-11463422D02*
X21410714Y-11449136D01*
X21439286Y-11406279D01*
X21453571Y-11377708D01*
X21467857Y-11334851D01*
X21482143Y-11263422D01*
X21482143Y-11206279D01*
X21467857Y-11134851D01*
X21453571Y-11091994D01*
X21439286Y-11063422D01*
X21410714Y-11020565D01*
X21396428Y-11006279D01*
M02*
