G04 #@! TF.GenerationSoftware,KiCad,Pcbnew,(5.1.5-0-10_14)*
G04 #@! TF.CreationDate,2020-09-24T22:41:23+08:00*
G04 #@! TF.ProjectId,connector,636f6e6e-6563-4746-9f72-2e6b69636164,rev?*
G04 #@! TF.SameCoordinates,Original*
G04 #@! TF.FileFunction,Legend,Top*
G04 #@! TF.FilePolarity,Positive*
%FSLAX46Y46*%
G04 Gerber Fmt 4.6, Leading zero omitted, Abs format (unit mm)*
G04 Created by KiCad (PCBNEW (5.1.5-0-10_14)) date 2020-09-24 22:41:23*
%MOMM*%
%LPD*%
G04 APERTURE LIST*
%ADD10C,0.120000*%
%ADD11C,0.150000*%
G04 APERTURE END LIST*
D10*
X173508500Y-90225560D02*
X173508500Y-94035560D01*
X173508500Y-94035560D02*
X164388500Y-94045560D01*
X164448500Y-94085560D02*
X164448500Y-92665560D01*
X164448500Y-92625560D02*
X166288500Y-92615560D01*
X173508500Y-90225560D02*
X173508500Y-86415560D01*
X173508500Y-86415560D02*
X164408500Y-86425560D01*
X164408500Y-86425560D02*
X164408500Y-87845560D01*
X164388500Y-87825560D02*
X166288500Y-87835560D01*
X167398500Y-91725560D02*
X172898500Y-91725560D01*
X172898500Y-91725560D02*
X172898500Y-91225560D01*
X172898500Y-91225560D02*
X167398500Y-91225560D01*
X167398500Y-91225560D02*
X167398500Y-91725560D01*
X167398500Y-89225560D02*
X172898500Y-89225560D01*
X172898500Y-89225560D02*
X172898500Y-88725560D01*
X172898500Y-88725560D02*
X167398500Y-88725560D01*
X167398500Y-88725560D02*
X167398500Y-89225560D01*
X164298500Y-91475560D02*
X163698500Y-91775560D01*
X163698500Y-91775560D02*
X163698500Y-91175560D01*
X163698500Y-91175560D02*
X164298500Y-91475560D01*
X156851860Y-93411940D02*
X161351860Y-93411940D01*
X155601860Y-89411940D02*
X155601860Y-90911940D01*
X161351860Y-86911940D02*
X156851860Y-86911940D01*
X162601860Y-90911940D02*
X162601860Y-89411940D01*
X150100000Y-87810000D02*
X150100000Y-85385000D01*
X150100000Y-95605000D02*
X150100000Y-89930000D01*
X153170000Y-95605000D02*
X150100000Y-95605000D01*
X153170000Y-85385000D02*
X150100000Y-85385000D01*
X153170000Y-91060000D02*
X153170000Y-85385000D01*
X153170000Y-95605000D02*
X153170000Y-93180000D01*
D11*
X164586119Y-89862226D02*
X163871833Y-89862226D01*
X163728976Y-89814607D01*
X163633738Y-89719369D01*
X163586119Y-89576512D01*
X163586119Y-89481274D01*
X163586119Y-90862226D02*
X163586119Y-90290798D01*
X163586119Y-90576512D02*
X164586119Y-90576512D01*
X164443261Y-90481274D01*
X164348023Y-90386036D01*
X164300404Y-90290798D01*
X157768526Y-86316701D02*
X157911383Y-86364320D01*
X158149479Y-86364320D01*
X158244717Y-86316701D01*
X158292336Y-86269082D01*
X158339955Y-86173844D01*
X158339955Y-86078606D01*
X158292336Y-85983368D01*
X158244717Y-85935749D01*
X158149479Y-85888130D01*
X157959002Y-85840511D01*
X157863764Y-85792892D01*
X157816145Y-85745273D01*
X157768526Y-85650035D01*
X157768526Y-85554797D01*
X157816145Y-85459559D01*
X157863764Y-85411940D01*
X157959002Y-85364320D01*
X158197098Y-85364320D01*
X158339955Y-85411940D01*
X158673288Y-85364320D02*
X158911383Y-86364320D01*
X159101860Y-85650035D01*
X159292336Y-86364320D01*
X159530431Y-85364320D01*
X160435193Y-86364320D02*
X159863764Y-86364320D01*
X160149479Y-86364320D02*
X160149479Y-85364320D01*
X160054240Y-85507178D01*
X159959002Y-85602416D01*
X159863764Y-85650035D01*
X148588571Y-91280714D02*
X148636190Y-91137857D01*
X148683809Y-91090238D01*
X148779047Y-91042619D01*
X148921904Y-91042619D01*
X149017142Y-91090238D01*
X149064761Y-91137857D01*
X149112380Y-91233095D01*
X149112380Y-91614047D01*
X148112380Y-91614047D01*
X148112380Y-91280714D01*
X148160000Y-91185476D01*
X148207619Y-91137857D01*
X148302857Y-91090238D01*
X148398095Y-91090238D01*
X148493333Y-91137857D01*
X148540952Y-91185476D01*
X148588571Y-91280714D01*
X148588571Y-91614047D01*
X148112380Y-90756904D02*
X148112380Y-90185476D01*
X149112380Y-90471190D02*
X148112380Y-90471190D01*
X149112380Y-89328333D02*
X149112380Y-89899761D01*
X149112380Y-89614047D02*
X148112380Y-89614047D01*
X148255238Y-89709285D01*
X148350476Y-89804523D01*
X148398095Y-89899761D01*
X152531428Y-93960952D02*
X152531428Y-93199047D01*
X152912380Y-93580000D02*
X152150476Y-93580000D01*
M02*
